<?xml version="1.0" encoding="iso-8859-1"?>
<!-- Uploaded to: SVG Repo, www.svgrepo.com, Generator: SVG Repo Mixer Tools -->
<svg xmlns="http://www.w3.org/2000/svg" xmlns:xlink="http://www.w3.org/1999/xlink" version="1.1" id="Capa_1"  viewBox="0 0 470.003 470.003" xml:space="preserve" width="512" height="512">
<g>
	<path style="fill:#185F8D;" d="M400.636,459.631L386.5,425.505l-12.181,9.277l-0.817-1.463l13.276,32.051   c1.585,3.828,5.972,5.645,9.799,4.06C400.403,467.844,402.221,463.458,400.636,459.631z"/>
	<path style="fill:#185F8D;" d="M95.679,434.783l-12.177-9.277l-14.135,34.125c-1.585,3.827,0.233,8.213,4.059,9.799   c3.827,1.585,8.214-0.231,9.799-4.06l13.039-31.479L95.679,434.783z"/>
	<path style="fill:#082947;" d="M235,0c-4.143,0-7.5,3.357-7.5,7.5v70h15v-70C242.5,3.357,239.143,0,235,0z"/>
	<path style="fill:#185F8D;" d="M363.117,214.999c-3.265,0-6.034,2.089-7.064,5H113.948c-1.031-2.911-3.8-5-7.064-5   c-4.143,0-7.5,3.357-7.5,7.5v10c0,4.143,3.357,7.5,7.5,7.5c3.265,0,6.034-2.089,7.064-5h242.104c1.031,2.911,3.8,5,7.064,5   c4.143,0,7.5-3.357,7.5-7.5v-10C370.617,218.356,367.259,214.999,363.117,214.999z"/>
	<path style="fill:#98D9D5;" d="M203.953,95.005L79.446,395.593c-6.337,15.3,0.934,32.854,16.233,39.19l114.862-277.282l24.46-40   L203.953,95.005z"/>
	<path style="fill:#98D9D5;" d="M390.555,395.586L266.049,95.001l-31.047,22.497l24.463,40l114.855,277.284   C389.628,428.441,396.896,410.895,390.555,395.586z"/>
	<path style="fill:#F2484B;" d="M254.999,57.506c8.255-0.01,14.296,6.71,13.43,14.916l-2.38,22.58l-6.585,62.497l-48.923,0.002   l-6.588-62.496l-2.385-22.587c-0.856-8.207,5.185-14.92,13.434-14.917L254.999,57.506z"/>
	<circle style="fill:#185F8D;" cx="114.353" cy="348.629" r="25"/>
	<circle style="fill:#185F8D;" cx="355.647" cy="348.629" r="25"/>
	<path style="fill:#082947;" d="M235,254.999c-4.143,0-7.5-3.357-7.5-7.5v-40c0-4.143,3.357-7.5,7.5-7.5s7.5,3.357,7.5,7.5v40   C242.5,251.642,239.143,254.999,235,254.999z"/>
</g>















</svg>