<?xml version="1.0" encoding="iso-8859-1"?>
<!-- Uploaded to: SVG Repo, www.svgrepo.com, Generator: SVG Repo Mixer Tools -->
<svg version="1.1" id="Layer_1" xmlns="http://www.w3.org/2000/svg" xmlns:xlink="http://www.w3.org/1999/xlink" 
	 viewBox="0 0 395.895 395.895" xml:space="preserve">
<g>
	<path style="fill:#3E4A57;" d="M135.092,366.046c0-3.297,2.673-5.97,5.97-5.97s5.97,2.673,5.97,5.97v23.879
		c0,3.297-2.673,5.97-5.97,5.97s-5.97-2.673-5.97-5.97V366.046z"/>
	<path style="fill:#009BDE;" d="M120.97,334.225c-3.589,18.194,8.251,35.852,26.444,39.44l42.555-215.738l-32.943-6.498
		L120.97,334.225z"/>
	<path style="fill:#5C6670;" d="M260.803,366.046c0-3.297-2.673-5.97-5.97-5.97s-5.97,2.673-5.97,5.97v23.879
		c0,3.297,2.673,5.97,5.97,5.97s5.97-2.673,5.97-5.97V366.046z"/>
	<path style="fill:#009BDE;" d="M274.925,334.225c3.589,18.194-8.251,35.852-26.444,39.44l-42.555-215.738l32.943-6.498
		L274.925,334.225z"/>
	<rect x="182.167" style="fill:#C3C6C8;" width="31.563" height="49.894"/>
	<rect x="190.778" y="49.894" style="fill:#A4A9AD;" width="14.34" height="19.249"/>
	<circle style="fill:#3E4A57;" cx="197.948" cy="128.5" r="64.946"/>
	<circle style="fill:#C3C6C8;" cx="197.948" cy="128.5" r="43.946"/>
</g>
</svg>