<?xml version="1.0" encoding="utf-8"?>

<!DOCTYPE svg PUBLIC "-//W3C//DTD SVG 1.1//EN" "http://www.w3.org/Graphics/SVG/1.1/DTD/svg11.dtd">
<svg version="1.1" id="Layer_1" xmlns="http://www.w3.org/2000/svg" xmlns:xlink="http://www.w3.org/1999/xlink" x="0px" y="0px"
	 viewBox="-56 -46 989 2012" enable-background="new -56 -46 989 2012" xml:space="preserve">
<g>
	<path fill="#666666" stroke="#666666" stroke-width="0.0938" d="M397.63,0h74.46c-0.4,1.08-0.76,2.18-1.08,3.29h-1.38
		c-5.21,0.04-10.42,0.04-15.63,0.02c-0.41,0-1.23,0-1.65,0c-5.43,0.01-10.87,0.04-16.3-0.04c-0.12,77.96-0.02,155.92-0.05,233.89
		c-0.44,0.31-1.31,0.94-1.74,1.26c-0.05-78.38-0.02-156.77-0.02-235.15c-5.41,0.08-10.82,0.06-16.23,0.04c-0.41,0-1.22,0-1.63-0.01
		c-5.15,0.02-10.3,0.03-15.44,0.01c0,78.39-0.01,156.77,0,235.15c-1.21,0.09-2.41,0.27-3.59,0.5c0.05-77.98,0.02-155.96,0.02-233.94
		C397.39,3.34,397.46,1.67,397.63,0z"/>
	<path fill="#656565" stroke="#656565" stroke-width="0.0938" d="M472.09,0h0.7c0.56,5.67,0.33,11.36,0.35,17.04
		c0.03,73.93-0.05,147.87,0.04,221.8c24.97,6.13,47.68,20.05,65.52,38.43c11.52,11.51,21.33,24.77,28.43,39.44
		c15.79,32.84,18.1,71.61,7.98,106.48c-5.18,18.19-14.78,34.87-26.67,49.5c14.82,53.97,29.4,108.02,44.12,162.02
		c61.15-0.02,122.31,0,183.47-0.01c1.18,0.2,3.55-0.4,3.49,1.53c0.33,10.89-0.03,21.81,0.16,32.71c-0.19,1.73,0.33,3.76-0.69,5.31
		c-6.31,0.48-12.65,0.05-18.96,0.19c-52.54,0.01-105.07-0.03-157.6,0.02c15.29,71.46,30.3,142.98,45.49,214.46
		c37.38,176.55,74.94,353.07,112.37,529.61c15.9,96.7899,31.61,193.61,47.42,290.4099c0.32,3.39,4.81,0.4601,6.92,0.88
		c-0.88-5.83-1.87-11.63-3.01-17.3999c6.92-2.12,14.21-2.79,21.39-3.5c0.91,4.36,1.81,8.73,2.41,13.1599
		c2.37,17.38,6.21,34.52,8.51,51.92c1.02,8.83,3.05,17.5,4.34,26.3c-6.84,1.99-13.95,3.12-21.05,3.61
		c-1.15-5.76-2.17-11.53-3.04-17.3201c-2.31,0.37-4.61,0.78-6.9,1.1801c1.3,9.08,3.5,18.08,4.09,27.24
		c-5.54,1.9-11.42,2.55-17.12,3.83l-0.03-1.47c5.38-1.8199,11.33-1.61,16.38-4.4399c-0.97-0.1901-1.92-0.29-2.88-0.3601
		C798.29,1673.39,778.84,1554.22,759.4,1435.05c-3.1-20.89-8.25-41.39-12.4301-62.0701c-5.42-25.5699-10.86-51.14-16.29-76.72
		c-31.85-10.91-63.72-21.76-95.59-32.61c38.58,180.97,77.02,361.98,115.49,542.98c5.29-1.11,10.57-2.3,15.89-3.3101
		c0.3701,0.3201,1.1201,0.9701,1.4901,1.3c-1.16,0.1801-2.31,0.38-3.45,0.6c0.17,0.49,0.53,1.47,0.71,1.9601
		c-5.1299,1.0299-10.21,2.33-15.37,3.1799c-1.47,0.59-2.46-1.01-2.58-2.2c-80.43-377.88-160.67-755.8-240.84-1133.73
		c-20.07,0.05-40.14-0.05-60.22,0.04l-0.6,0.01c0.16,23.31,0.14,46.62,0.02,69.93l-1.97,0.04c-0.09-60.02-0.01-120.05-0.03-180.07
		c0.53-0.45,1.59-1.37,2.12-1.83c0.51,3.46,0.62,6.96,0.51,10.46c-0.05,20.56,0.01,41.13-0.03,61.7c17.25-0.03,34.5,0.02,51.76-0.02
		c-7.95-37.72-16.05-75.41-23.97-113.14c-23.08,6.05-47.49,6.41-70.85,1.74c-7.81,37.14-15.68,74.26-23.68,111.36
		c15.09,0.05,30.2,0.16,45.29-0.05c0.56-0.22,1.67-0.68,2.23-0.91c1.13,7.05,0.39,14.19,0.61,21.29c-0.21,6.53,0.48,13.11-0.67,19.6
		l-2.13-0.07c-17.91-0.18-35.82-0.01-53.72-0.08c-79.08,371.79-157.92,743.6301-236.86,1115.45c-2.03,8.16-2.87,16.64-5.75,24.58
		c-5.78-1.27-11.55-2.58-17.39-3.5299c-12.2,31.12-24.7,62.13-36.98,93.22c-1.19,2.83-1.94,5.97-3.99,8.36
		c-0.46-0.1801-1.38-0.55-1.83-0.74c-0.44-7.26,0.39-14.54,0.53-21.8c1.45-29.2,2.63-58.4,4.02-87.6
		c-5.89-1.35-11.95-2.05-17.71-3.95c1.41-8.99,2.77-17.9801,4.36-26.9301c-2.33-0.4299-4.66-0.84-6.99-1.25
		c-1.36,5.8201-1.58,11.84-3.02,17.66c-6.84-1.27-14.02-1.5601-20.6-3.86c-0.37-5.01,1.15-9.99,1.9-14.92
		c2.87-13.92,4.44-28.0699,7.03-42.04c2.36-10.9199,3.25-22.12,5.62-33.0299c0.05-1.9301,2.1-1.5701,3.42-1.42
		c6.01,0.84,12.03,1.67,17.95,3c-0.75,5.9-1.67,11.79-2.76,17.65c2.17,0.36,4.34,0.75,6.5,1.15
		c14.73-91.15,29.24-182.3401,43.97-273.4901c4.64-22.5199,9.54-45,14.28-67.5c49.49-233,98.97-465.9999,148.49-698.9899
		c-60.47-0.05-120.94,0.03-181.41-0.03c-1.71,0.41-2.77-0.74-2.53-2.4c-0.08-12.32-0.03-24.64,0-36.95
		c8.17-0.76,16.39-0.21,24.59-0.37c56.49,0,112.99,0,169.49,0c14.01-51.83,28.07-103.65,42.12-155.47
		c-9.76-10.51-18.17-22.33-24.42-35.26c-12.09-24.92-15.82-53.33-12.98-80.74c2.8-29.96,15.78-58.82,36.33-80.79
		c18.77-20.9,43.32-37.12,70.87-43.48c1.18-0.23,2.38-0.41,3.59-0.5c5.15-0.17,10.3-0.03,15.46-0.03
		c-0.05-78.38-0.02-156.75-0.02-235.13c0.41,0.01,1.22,0.01,1.63,0.01c0.03,78.36,0.05,156.72-0.01,235.08
		c5.42,0.01,10.84,0,16.26,0.03c0.43-0.32,1.3-0.95,1.74-1.26v1.24c5.45-0.01,10.91-0.01,16.36,0.02
		c-0.02-78.37,0-156.74-0.01-235.11c0.42,0,1.24,0,1.65,0c0.02,78.36,0.02,156.72,0,235.08c5.21-0.07,10.42,0.19,15.63-0.11
		l1.03-0.27c0.36-61.66,0.08-123.34,0.17-185c0.11-16.58-0.26-33.16,0.18-49.72C471.33,2.18,471.69,1.08,472.09,0 M388.99,245.05
		c-21.66,6.86-41.01,19.95-56.57,36.38c-20.29,20.53-34.03,47.53-38.03,76.17c-3.56,26.18-1.32,53.57,9.04,78.05
		c6.04,14.81,15.14,28.22,25.87,40.03c13.59,14.9,29.93,27.48,48.46,35.62c35.82,15.53,78.05,15.57,113.96,0.28
		c27.81-12.37,51.25-33.91,66.99-59.87c11.03-18.18,16.84-39.12,18.63-60.21c0.29,0.39,0.8799,1.18,1.17,1.58
		c0.57-8.09,0.8-16.25-0.12-24.32l-1.02,1.01c-1.49-19.03-6.23-37.93-15.24-54.83c-8.79-16.99-21.39-31.77-35.76-44.3
		c-13.27-11.44-28.69-20.51-45.45-25.77c-4.22-1.22-8.42-2.95-12.88-2.9c-21.7,0.02-43.39,0.04-65.09-0.01
		C398.11,241.86,393.56,243.72,388.99,245.05 M477.45,520.57c34.11,160.77,68.24,321.53,102.34,482.3
		c18.36,86.1901,36.48,172.4401,54.97,258.6c9.92,3.9401,20.22,6.97,30.29,10.5601c21.75,7.4,43.49,14.86,65.25,22.23
		c-44.81-210.45-89.33-420.96-133.95-631.45c-16.77-62.33-33.91-124.57-50.71-186.89C527.39,496.45,504.06,513,477.45,520.57
		 M330.38,482.33c-16.37,61.61-33.42,123.04-49.84,184.63c-51.39,241.86-102.76,483.71-154.13,725.57
		c-3.51,16.83-7.29,33.6-10.61,50.47c-18.92,117.65-37.79,235.3-56.66,352.96c22.47,4.29,44.7,9.76,67.12,14.3201
		c91.1-429.3,182.18-858.61,273.5-1287.8701c-12.13-2.86-23.89-7.31-34.76-13.41C352.09,502.04,340.79,492.57,330.38,482.33
		 M378.1,637.69l0.8,0.15c-1.31,6.03-2.69,12.05-3.86,18.11c-0.5,1.54,0.24,3.05,0.86,4.42l-1.49-0.67
		c-1.03,3.84-1.89,7.73-2.65,11.64c-0.18,0.27-0.54,0.8-0.73,1.0699c18.07-0.25,36.14-0.08,54.2-0.1c0.7-6.08,0.28-12.2,0.37-18.3
		c-0.09-5.77,0.3-11.55-0.35-17.3c-14.07,0.07-28.14,0.05-42.2-0.01C381.34,636.66,379.7,637.19,378.1,637.69 M94.69,638.2
		c5.59,10.85,10.93,21.83,16.44,32.72c5.45-0.08,10.9-0.08,16.35,0.03c-5.4-10.99-10.86-21.95-16.43-32.85
		C105.6,638.29,100.14,638.17,94.69,638.2 M112.85,638.18c5.41,10.92,10.89,21.81,16.33,32.72c5.4-0.04,10.8-0.05,16.2,0.03
		c-5.42-10.96-10.73-21.97-16.34-32.82C123.64,638.28,118.24,638.18,112.85,638.18 M130.84,638.17
		c5.45,10.89,10.76,21.86,16.26,32.73c5.45-0.05,10.9-0.05,16.35,0.03c-5.39-10.99-10.85-21.94-16.42-32.83
		C141.64,638.28,136.23,638.19,130.84,638.17 M148.83,638.17c5.4,10.93,10.9,21.81,16.33,32.73c5.45-0.04,10.9-0.06,16.36,0.05
		c-5.24-10.96-10.98-21.68-16.14-32.67C159.87,638.12,154.35,638.25,148.83,638.17 M166.9,638.16
		c5.4,10.9301,10.91,21.81,16.32,32.73c5.41-0.03,10.82-0.04,16.22,0.03c-5.47-10.94-10.71-21.99-16.39-32.83
		C177.67,638.29,172.28,638.2,166.9,638.16 M184.88,638.17c5.47,10.89,10.78,21.86,16.27,32.74c5.46-0.06,10.91-0.0699,16.37,0.03
		c-5.41-10.97-10.87-21.93-16.42-32.84C195.69,638.28,190.28,638.19,184.88,638.17 M220.93,638.16
		c5.44,10.92,10.91,21.82,16.35,32.73c5.4-0.02,10.81-0.06,16.21,0.06c-5.28-10.92-10.85-21.71-16.06-32.66
		C231.93,638.11,226.43,638.26,220.93,638.16 M274.96,638.15c2.12,4.03,3.91,8.23,6.26,12.15c1.13-4.05,2.19-8.11,3.19-12.18
		C281.26,638.19,278.11,638.2,274.96,638.15 M446.17,638.2c0.01,10.89,0.01,21.78,0,32.68c2.48,0,4.95,0,7.43,0
		c5.44-10.91,10.81-21.84,16.25-32.75C461.96,638.27,454.07,638.18,446.17,638.2 M471.45,638.22
		c-5.37,10.92-10.87,21.78-16.15,32.75c5.43-0.16,10.86-0.08,16.3-0.09c5.39-10.94,10.91-21.82,16.32-32.75
		C482.43,638.25,476.94,638.17,471.45,638.22 M489.49,638.22c-5.33,10.96-10.89,21.8-16.28,32.7401c5.48-0.13,10.96-0.09,16.44-0.07
		c3.74-7.58,7.56-15.12,11.32-22.69c-0.82-3.32-1.53-6.67-2.2-10.01C495.67,638.19,492.58,638.2,489.49,638.22 M593.66,638.1
		c-1.24,1.1,0.29,4.05,1.73,2.38C596.89,639.28,595.2,636.39,593.66,638.1 M594.91,643.71c2,7.11,4.2401,14.2,5.51,21.5
		c4.8-8.89,9.09-18.05,13.67-27.05c-5.4301,0.04-10.8701,0.13-16.29-0.0699C596.81,639.95,595.84,641.82,594.91,643.71
		 M615.7,638.53c-4.82,9.04-9.16,18.35-13.87,27.46c-1.07,1.53-0.46,3.31-0.11,4.97c4.69-0.13,9.38-0.1,14.08-0.06
		c5.44-10.92,10.94-21.81,16.35-32.75C626.69,638.49,620.98,637.68,615.7,638.53 M633.94,638.11
		c-5.59,10.89-11.02,21.86-16.44,32.83c5.43-0.1,10.86-0.08,16.3-0.04c5.48-10.89,10.79-21.86,16.28-32.75
		C644.69,638.21,639.31,638.28,633.94,638.11 M635.5,670.94c5.43-0.11,10.86-0.07,16.3-0.06c5.44-10.91,10.91-21.8,16.34-32.72
		c-5.44,0.04-10.88,0.11-16.32-0.05C646.25,648.99,640.93,659.99,635.5,670.94 M669.91,638.11c-5.55,10.91-11.03,21.85-16.41,32.85
		c5.45-0.13,10.9-0.1,16.35-0.06c5.45-10.91,10.9301-21.8,16.34-32.73C680.76,638.19,675.33,638.28,669.91,638.11 M687.95,638.12
		c-5.52,10.91-11.01,21.84-16.39,32.82c5.42-0.1,10.85-0.09,16.28-0.03c5.5-10.8799,10.81-21.85,16.27-32.75
		C698.72,638.21,693.33,638.26,687.95,638.12 M705.92,638.09c-5.65,10.85-10.91,21.9-16.38,32.84c5.43-0.08,10.86-0.08,16.29-0.01
		c5.45-10.92,10.93-21.82,16.35-32.74C716.76,638.19,711.34,638.29,705.92,638.09 M723.95,638.12
		c-5.56,10.89-10.99,21.85-16.42,32.81c5.4399-0.08,10.89-0.09,16.35,0c5.47-10.91,10.95-21.82,16.35-32.76
		C734.8,638.2,729.38,638.27,723.95,638.12 M742.03,638.12c-5.6,10.87-11,21.84-16.4301,32.8c5.4301-0.06,10.85-0.08,16.28,0
		c5.51-10.88,10.82-21.86,16.28-32.77C752.78,638.21,747.41,638.26,742.03,638.12 M759.94,638.11
		c-5.6,10.86-10.89,21.87-16.33,32.81c5.42-0.06,10.85-0.07,16.27-0.02c5.47-10.9,10.91-21.81,16.37-32.71
		C770.81,638.18,765.37,638.28,759.94,638.11 M202.89,638.16c5.38,10.94,10.9,21.81,16.32,32.73c5.46-0.02,10.91-0.07,16.37,0.07
		c-5.39-10.9901-10.87-21.93-16.4-32.85C213.75,638.27,208.32,638.2,202.89,638.16 M238.93,638.16
		c5.47,10.89,10.78,21.86,16.27,32.7401c5.46-0.04,10.91-0.07,16.36,0.05c-5.37-10.98-10.88-21.9-16.37-32.82
		C249.77,638.26,244.34,638.2,238.93,638.16 M256.92,638.16c5.44,10.92,10.91,21.83,16.36,32.75c0.69-0.0099,2.07-0.02,2.76-0.03
		c1.08-6.09,2.99-11.99,4.34-18.01c-1.9-5.13-4.79-9.86-7.18-14.78C267.77,638.29,262.34,638.19,256.92,638.16 M94.83,642.01
		c-0.01,9.63,0.01,19.26,0,28.9c4.85-0.06,9.71-0.05,14.57,0.02C104.59,661.27,99.95,651.51,94.83,642.01 M761.59,670.94
		c4.83-0.09,9.66-0.08,14.49-0.05c-0.01-9.6,0.01-19.19-0.01-28.78C771.06,651.62,766.36,661.3,761.59,670.94 M491.33,670.97
		c4.75-0.14,9.52-0.15,14.28,0c-1.18-6.77-2.89-13.43-4.06-20.2C497.85,657.35,494.7,664.22,491.33,670.97 M815.71,1694.88
		c0.39,2.0699,0.78,4.1801,1.2,6.27c4.78-0.77,9.53-1.74,14.32-2.4601c-0.35-2.0099-0.71-3.97-1.04-5.95
		C825.34,1693.33,820.52,1694.09,815.71,1694.88 M46.56,1696.1801c-0.35,2.08-0.69,4.1599-1.02,6.2899
		c4.79,0.63,9.56,1.4301,14.36,2.0601c0.3-2.0901,0.67-4.1,0.99-6.15C56.11,1697.66,51.33,1696.91,46.56,1696.1801 M817.14,1702.84
		c0.39,2.42,0.75,4.8401,1.11,7.29c4.76-0.77,9.47-1.78,14.25-2.42c-0.29-2.5299-0.61-5.0399-1-7.52
		C826.73,1701.15,821.93,1701.95,817.14,1702.84 M45.35,1704.01c-0.42,2.38-0.85,4.79-1.35,7.1799c4.78,0.9,9.59,1.64,14.37,2.5
		c0.44-2.5,0.88-4.98,1.33-7.46C54.91,1705.53,50.13,1704.78,45.35,1704.01 M818.64,1711.73c0.41,2.4,0.84,4.84,1.28,7.27
		c4.66-0.9399,9.34-1.8,14.05-2.51c-0.35-2.46-0.72-4.9-1.16-7.33C828.1,1710.1,823.37,1710.9301,818.64,1711.73 M43.84,1712.87
		c-0.33,2.42-0.67,4.85-1.01,7.3c4.74,0.8199,9.48,1.59,14.25,2.24c0.33-2.39,0.68-4.77,1.02-7.13
		C53.34,1714.55,48.6,1713.67,43.84,1712.87 M809.7,1714.03c2.72,16.6699,5.74,33.28,8.45,49.95c1.79-0.39,3.62-0.71,5.43-1.0599
		c-3.25-16.4501-5.38-33.11-8.3-49.62C813.41,1713.53,811.55,1713.77,809.7,1714.03 M61.5,1716.96c-0.69,5.03-1.6,10.03-2.59,15.02
		c-2.61,11.52-3.26,23.36-5.65,34.9401c1.76,0.1799,3.51,0.46,5.26,0.6899c2.71-16.65,5.6-33.27,8.32-49.92
		C65.06,1717.41,63.28,1717.2,61.5,1716.96 M820.2,1720.47c0.33,2.51,0.69,5.01,1.07,7.53c4.73-0.89,9.49-1.67,14.27-2.24
		c-0.38-2.62-0.77-5.22-1.27-7.8C829.6,1718.9,824.91,1719.78,820.2,1720.47 M42.41,1721.9399c-0.41,2.29-0.84,4.5801-1.31,6.88
		c4.73,1.01,9.5,1.8301,14.24,2.76c0.48-2.49,0.95-4.95,1.45-7.3999C52,1723.4,47.24,1722.41,42.41,1721.9399 M821.45,1729.51
		c0.46,2.46,0.91,4.9299,1.39,7.41c4.77-1.0601,9.6-1.8501,14.39-2.8c-0.47-2.33-0.93-4.62-1.4-6.92
		C831.05,1728.08,826.25,1728.83,821.45,1729.51 M39.63,1737.9301c4.67,0.8999,9.35,1.73,14.08,2.33c0.4-2.39,0.84-4.73,1.33-7.08
		c-4.77-0.8301-9.5-1.8501-14.28-2.6101C40.38,1733.01,40.01,1735.45,39.63,1737.9301 M823.06,1738.39
		c0.38,2.47,0.78,4.9399,1.21,7.4299c4.77-1.0099,9.56-1.8999,14.34-2.85c-0.35-2.37-0.71-4.71-1.02-7.0499
		C832.7,1736.49,827.93,1737.74,823.06,1738.39 M39.3,1739.67c-0.34,2.34-0.73,4.7-1.15,7.0699c4.81,0.85,9.64,1.67,14.48,2.4
		c0.21-2.38,0.42-4.74,0.65-7.09C48.62,1741.22,43.98,1740.34,39.3,1739.67 M824.56,1747.26c0.27,2.46,0.59,4.9399,0.91,7.4299
		c4.8701-0.86,9.77-1.5299,14.65-2.36c-0.41-2.5499-0.82-5.12-1.18-7.6599C834.12,1745.41,829.4,1746.65,824.56,1747.26
		 M37.97,1748.42c-0.36,2.4299-0.75,4.86-1.1,7.3099c4.75,0.78,9.49,1.62,14.23,2.41c0.44-2.4301,0.86-4.87,1.26-7.28
		C47.57,1750.01,42.77,1749.2,37.97,1748.42 M825.83,1756.21c0.45,2.36,0.91,4.74,1.34,7.13c4.69-0.7,9.35-1.65,14.03-2.47
		c-0.33-2.3099-0.3-4.6899-1.09-6.87C835.34,1754.6801,830.62,1755.6801,825.83,1756.21 M36.61,1757.34
		c-0.42,2.4-0.85,4.8301-1.31,7.26c4.77,0.6901,9.48,1.76,14.25,2.41c0.41-2.42,0.84-4.8,1.31-7.1801
		C46.12,1758.9301,41.36,1758.17,36.61,1757.34 M827.58,1765.0601c0.36,2.3999,0.73,4.83,1.1,7.2699
		c4.77-0.6499,9.54-1.38,14.28-2.2799c-0.5-2.4701-0.92-4.9601-1.29-7.42C836.93,1763.2,832.27,1764.22,827.58,1765.0601
		 M35.04,1766.14c-0.5,2.52-0.97,5.04-1.42,7.6c4.73,0.62,9.45,1.37,14.15,2.26c0.45-2.42,0.93-4.85,1.41-7.24
		C44.47,1767.86,39.75,1767.04,35.04,1766.14 M828.98,1774.09c0.39,2.04,0.77,4.1,1.14,6.1801c4.72-0.8201,9.43-1.6801,14.16-2.42
		c-0.3701-2.0499-0.71-4.0599-1.07-6.08C838.45,1772.46,833.72,1773.28,828.98,1774.09 M33.3,1775.21
		c-0.32,2.05-0.63,4.13-0.96,6.23c4.8,0.91,9.64,1.63,14.44,2.52c0.25-2.1699,0.5-4.34,0.74-6.48
		C42.76,1776.85,38.03,1776.05,33.3,1775.21 M76.28,1803.03c-1.14,32.14-3.17,64.27-4.08,96.4099
		c12-29.75,23.68-59.62,35.63-89.3799C97.33,1807.64,86.78,1805.45,76.28,1803.03z"/>
	<path fill="#F5F5F5" stroke="#F5F5F5" stroke-width="0.0938" d="M400.94,3.31c5.14,0.02,10.29,0.01,15.44-0.01
		c0,78.38-0.03,156.75,0.02,235.13c-5.16,0-10.31-0.14-15.46,0.03C400.93,160.08,400.94,81.7,400.94,3.31z"/>
	<path fill="#F5F5F5" stroke="#F5F5F5" stroke-width="0.0938" d="M436.05,3.27c5.43,0.08,10.87,0.05,16.3,0.04
		c0.01,78.37-0.01,156.74,0.01,235.11c-5.45-0.03-10.91-0.03-16.36-0.02v-1.24C436.03,159.19,435.93,81.23,436.05,3.27z"/>
	<path fill="#F5F5F5" stroke="#F5F5F5" stroke-width="0.0938" d="M454,3.31c5.21,0.02,10.42,0.02,15.63-0.02
		c-0.04,78.33-0.05,156.66,0,234.99c-5.21,0.3-10.42,0.04-15.63,0.11C454.02,160.03,454.02,81.67,454,3.31z"/>
	<path fill="#4C4C4C" stroke="#4C4C4C" stroke-width="0.0938" d="M469.63,3.29h1.38c-0.44,16.56-0.07,33.14-0.18,49.72
		c-0.09,61.66,0.19,123.34-0.17,185l-1.03,0.27C469.58,159.95,469.59,81.62,469.63,3.29z"/>
	<path fill="#F5F5F5" stroke="#F5F5F5" stroke-width="0.0938" d="M418.01,3.31c5.41,0.02,10.82,0.04,16.23-0.04
		c0,78.38-0.03,156.77,0.02,235.15c-5.42-0.03-10.84-0.02-16.26-0.03C418.06,160.03,418.04,81.67,418.01,3.31z"/>
	<path fill="#F5F5F5" stroke="#F5F5F5" stroke-width="0.0938" d="M388.99,245.05c4.57-1.33,9.12-3.19,13.96-3.09
		c21.7,0.05,43.39,0.03,65.09,0.01c4.46-0.05,8.66,1.68,12.88,2.9c16.76,5.26,32.18,14.33,45.45,25.77
		c14.37,12.53,26.97,27.31,35.76,44.3c9.01,16.9,13.75,35.8,15.24,54.83c0.5,7.23,0.45,14.49-0.03,21.73
		c-1.79,21.09-7.6,42.03-18.63,60.21c-15.7401,25.96-39.18,47.5-66.99,59.87c-35.91,15.29-78.14,15.25-113.96-0.28
		c-18.53-8.14-34.87-20.72-48.46-35.62c-10.73-11.81-19.83-25.22-25.87-40.03c-10.36-24.48-12.6-51.87-9.04-78.05
		c4-28.64,17.74-55.64,38.03-76.17C347.98,265,367.33,251.91,388.99,245.05 M416.47,272.68c-43.87,6.84-80.95,43.89-88.65,87.49
		c-3.14,20.4-1.94,41.85,5.99,61.07c7.65,18.74,20.95,34.88,37.04,47.02c23.83,18.33,55.75,24.64,85.05,19.02
		c20.7-3.41,39.84-14,54.68-28.69c12.53-11.94,22.59-26.69,28.02-43.2c5.96-18.43,7.17-38.39,3.32-57.38
		c-3.33-17.59-11.6-34.11-23.27-47.64c-11.29-13.35-25.49-24.38-41.67-31.13C457.99,271.08,436.74,270.27,416.47,272.68z"/>
	<path fill="#424242" stroke="#424242" stroke-width="0.0938" d="M416.47,272.68c20.27-2.41,41.52-1.6,60.51,6.56
		c16.18,6.75,30.38,17.78,41.67,31.13c11.67,13.53,19.94,30.05,23.27,47.64c3.85,18.99,2.64,38.95-3.32,57.38
		c-5.43,16.51-15.49,31.26-28.02,43.2c-14.84,14.69-33.98,25.28-54.68,28.69c-29.3,5.62-61.22-0.69-85.05-19.02
		c-16.09-12.14-29.39-28.28-37.04-47.02c-7.93-19.22-9.13-40.67-5.99-61.07C335.52,316.57,372.6,279.52,416.47,272.68
		 M425.15,273.26c-43.2,2.9-81.64,35.95-93.53,77.16c-5.2,19.33-5.24,40.07-0.1,59.41c5.87,21.38,19.36,40.21,36.45,54.13
		c14.53,12.05,32.39,20.05,51.12,22.55c15.7,2.7,31.88,1.04,47.14-3.24c21.16-6.13,39.58-19.8,53.36-36.78
		c26.39-31.84,30.17-79.57,10.98-115.89c-14.86-27.34-41.25-49.05-72.03-55.4C447.61,272.62,436.29,272.91,425.15,273.26z"/>
	<path fill="#4F4F4F" stroke="#4F4F4F" stroke-width="0.0938" d="M577.37,369.77l1.02-1.01c0.92,8.07,0.69,16.23,0.12,24.32
		c-0.29-0.4-0.88-1.19-1.17-1.58C577.82,384.26,577.87,377,577.37,369.77z"/>
	<path fill="#D8D8D8" stroke="#D8D8D8" stroke-width="0.0938" d="M477.45,520.57c26.61-7.57,49.94-24.12,68.19-44.65
		c16.8,62.32,33.94,124.56,50.71,186.89c44.62,210.49,89.14,421.0001,133.95,631.45c-21.76-7.37-43.5-14.83-65.25-22.23
		c-10.07-3.5901-20.37-6.62-30.29-10.5601c-18.49-86.1599-36.61-172.4099-54.97-258.6C545.69,842.1,511.56,681.34,477.45,520.57
		 M542.38,626.44c-5.2,1.44-10.03,4.29-13.58,8.38c-10.48,12.1-7.26,33.68,7.15,41.28c10.39,6.31,25.19,4.26,33.22-4.94
		c3.62-4.3199,6.67-9.42,7.36-15.1c1.1899-9.22-2.53-19.03-9.97-24.73C560.04,625.65,550.59,624.08,542.38,626.44 M668.39,1207.51
		c-6.01,1.1-12.03,4.71-14.31,10.62c-2.43,5.64-1.32,12.1801,1.41,17.5c4.59,8.22,15.89,11.66,24.22,7.14
		c6.8-3.85,11.53-11.9401,10.05-19.86C688.71,1212.91,678.3,1205.1801,668.39,1207.51z"/>
	<path fill="#D8D8D8" stroke="#D8D8D8" stroke-width="0.0938" d="M330.38,482.33c10.41,10.24,21.71,19.71,34.62,26.67
		c10.87,6.1,22.63,10.55,34.76,13.41c-91.32,429.26-182.4,858.57-273.5,1287.8701c-22.42-4.5601-44.65-10.03-67.12-14.3201
		C78.01,1678.3,96.88,1560.65,115.8,1443c3.32-16.87,7.1-33.64,10.61-50.47c51.37-241.86,102.74-483.71,154.13-725.57
		C296.96,605.37,314.01,543.94,330.38,482.33 M318.19,630.2c-11.83,3.24-18.73,16.05-18.15,27.79
		c0.11,13.22,12.03,24.38,24.95,25.13c8.14,1.03,15.95-3.05,21.68-8.53c10-10.32,9.72-28.59-0.8-38.46
		C338.53,629.47,327.59,627.61,318.19,630.2z"/>
	<path fill="#6F6F6F" stroke="#6F6F6F" stroke-width="0.0938" d="M424.82,562.74c6.97-0.34,13.96-0.1,20.93-0.19
		c-0.53,0.46-1.59,1.38-2.12,1.83c-5.68,0.4-11.37,0.11-17.06,0.17c0.16,17.48,0.03,34.96,0.08,52.44c0.06,5.56-0.3,11.15,0.36,16.7
		c-0.56,0.23-1.67,0.69-2.23,0.91C424.76,610.65,424.68,586.7,424.82,562.74z"/>
	<path fill="#424242" stroke="#424242" stroke-width="0.0938" d="M426.57,564.55c5.69-0.06,11.38,0.23,17.06-0.17
		c0.02,60.02-0.06,120.05,0.03,180.07l1.97-0.04c0.12-23.31,0.14-46.62-0.02-69.93l0.6-0.01c0.07,23.9,0.1,47.8-0.01,71.69
		c-0.55-0.3799-1.65-1.1299-2.2-1.5099c-5.78-0.7401-11.64-0.11-17.45-0.22c0.21-18.48,0.02-36.96,0.1-55.44
		c0.09-4.81-0.35-9.64,0.3-14.41c1.15-6.49,0.46-13.07,0.67-19.6c-0.22-7.1,0.52-14.24-0.61-21.29c-0.66-5.55-0.3-11.14-0.36-16.7
		C426.6,599.51,426.73,582.03,426.57,564.55 M428.17,581.72c4.87-0.0099,9.74-0.03,14.62,0.02c-0.06-5.35,0.09-10.71-0.14-16.06
		c-4.77,0.16-9.54,0.16-14.3-0.01C428.07,571.02,428.26,576.37,428.17,581.72 M428.19,583.11c0.01,5.56,0.02,11.13-0.01,16.7
		c4.87-0.03,9.74-0.03,14.61,0c-0.03-5.57-0.01-11.15-0.02-16.72C437.91,583.11,433.05,583.11,428.19,583.11 M428.24,601.23
		c0.04,5.46,0.11,10.92-0.07,16.37c4.88,0.06,9.77,0.08,14.66-0.02c-0.22-5.46-0.12-10.91-0.09-16.37
		C437.9,601.29,433.07,601.28,428.24,601.23 M428.19,619.12c0.01,5.55,0.03,11.09-0.02,16.64c4.87-0.01,9.75-0.02,14.63,0.01
		c-0.04-5.55-0.03-11.11-0.02-16.66C437.92,619.14,433.05,619.14,428.19,619.12 M428.17,637.2c0.05,5.55,0.03,11.1,0.02,16.65
		c4.87-0.03,9.73-0.03,14.59,0c-0.01-5.56-0.01-11.11,0.01-16.67C437.91,637.23,433.04,637.21,428.17,637.2 M428.17,655.24
		c0.05,5.56,0.03,11.12,0.03,16.68c4.85,0,9.71,0,14.58,0.01c-0.01-5.57-0.02-11.14,0.02-16.71
		C437.92,655.26,433.04,655.25,428.17,655.24 M428.13,673.38c0.13,5.49,0.06,10.98,0.06,16.48c4.86,0,9.72-0.01,14.59,0.02
		c0.01-5.5-0.08-10.99,0.09-16.48C437.95,673.27,433.04,673.29,428.13,673.38 M428.19,691.23c0.02,5.57,0.02,11.14,0,16.72
		c4.86,0,9.72-0.01,14.59,0c-0.01-5.58-0.01-11.15,0-16.73C437.91,691.26,433.05,691.25,428.19,691.23 M428.13,709.37
		c0.13,5.57,0.06,11.14,0.07,16.72c4.85,0.02,9.7-0.02,14.55,0.06c0.05-5.62,0-11.23,0.04-16.84
		C437.9,709.34,433.01,709.3,428.13,709.37 M428.22,727.46c0.34,5.32-0.52,10.72,0.54,15.98c4.47-0.41,8.98-0.45,13.45,0.03
		c1.07-5.27,0.21-10.6899,0.55-16.02C437.91,727.5,433.06,727.5,428.22,727.46z"/>
	<path fill="#E5E5E5" stroke="#E5E5E5" stroke-width="0.0938" d="M428.17,581.72c0.09-5.35-0.1-10.7,0.18-16.05
		c4.76,0.17,9.53,0.17,14.3,0.01c0.23,5.35,0.08,10.71,0.14,16.06C437.91,581.69,433.04,581.71,428.17,581.72z"/>
	<path fill="#E5E5E5" stroke="#E5E5E5" stroke-width="0.0938" d="M428.19,583.11c4.86,0,9.72,0,14.58-0.02
		c0.01,5.5699-0.01,11.15,0.02,16.72c-4.87-0.03-9.74-0.03-14.61,0C428.21,594.24,428.2,588.67,428.19,583.11z"/>
	<path fill="#F5F5F5" stroke="#F5F5F5" stroke-width="0.0938" d="M428.24,601.23c4.83,0.05,9.66,0.06,14.5-0.02
		c-0.03,5.46-0.13,10.91,0.09,16.37c-4.89,0.1-9.78,0.08-14.66,0.02C428.35,612.15,428.28,606.69,428.24,601.23 M429.89,602.93
		c-0.21,4.33-0.21,8.68,0.02,13.01c3.7,0.07,7.4,0.08,11.11,0.03c0.16-4.35,0.17-8.7-0.04-13.04
		C437.28,602.68,433.58,602.69,429.89,602.93z"/>
	<path fill="#E5E5E5" stroke="#E5E5E5" stroke-width="0.0938" d="M429.89,602.93c3.69-0.24,7.39-0.25,11.09,0
		c0.21,4.34,0.2,8.69,0.04,13.04c-3.71,0.05-7.41,0.04-11.11-0.03C429.68,611.61,429.68,607.26,429.89,602.93z"/>
	<path fill="#E5E5E5" stroke="#E5E5E5" stroke-width="0.0938" d="M428.19,619.12c4.86,0.02,9.73,0.02,14.59-0.01
		c-0.01,5.55-0.02,11.11,0.02,16.66c-4.88-0.03-9.76-0.02-14.63-0.01C428.22,630.21,428.2,624.67,428.19,619.12z"/>
	<path fill="#424242" stroke="#424242" stroke-width="0.0938" d="M378.1,637.69c1.6-0.5,3.24-1.03,4.95-0.99
		c14.06,0.06,28.13,0.08,42.2,0.01c0.65,5.75,0.26,11.53,0.35,17.3c-0.09,6.1,0.33,12.22-0.37,18.3c-18.06,0.02-36.13-0.15-54.2,0.1
		c0.19-0.27,0.55-0.8,0.73-1.0699c2.71-0.23,5.43-0.1801,8.15-0.17c-1.84-3.83-3.83-7.58-5.5-11.47l1.49,0.67
		c1.93,3.6,3.68,7.29,5.63,10.88c5.48-0.12,10.97-0.08,16.47-0.05c-5.35-11.01-10.96-21.89-16.35-32.88
		c-0.92-0.16-1.84-0.32-2.75-0.48L378.1,637.69 M382.94,637.84c5.33,11.23,11.01,22.3,16.62,33.4c5.44-0.11,10.89-0.08,16.34-0.02
		c-5.34-11.08-10.96-22.02-16.31-33.09C394.05,637.47,388.48,638.7,382.94,637.84 M400.95,638.17
		c5.63,10.99,10.79,22.22,16.61,33.11c2.42-0.1,4.84-0.1,7.27-0.13c0.06-10.9901,0.02-21.97,0.03-32.96
		C416.89,637.94,408.92,638.11,400.95,638.17z"/>
	<path fill="#E5E5E5" stroke="#E5E5E5" stroke-width="0.0938" d="M428.17,637.2c4.87,0.01,9.74,0.03,14.62-0.02
		c-0.02,5.56-0.02,11.11-0.01,16.67c-4.86-0.03-9.72-0.03-14.59,0C428.2,648.3,428.22,642.75,428.17,637.2z"/>
	<path fill="#E5E5E5" stroke="#E5E5E5" stroke-width="0.0938" d="M94.69,638.2c5.45-0.03,10.91,0.09,16.36-0.1
		c5.57,10.9,11.03,21.86,16.43,32.85c-5.45-0.11-10.9-0.11-16.35-0.03C105.62,660.03,100.28,649.05,94.69,638.2z"/>
	<path fill="#E5E5E5" stroke="#E5E5E5" stroke-width="0.0938" d="M112.85,638.18c5.39,0,10.79,0.1,16.19-0.07
		c5.61,10.85,10.92,21.86,16.34,32.82c-5.4-0.08-10.8-0.07-16.2-0.03C123.74,659.99,118.26,649.1,112.85,638.18z"/>
	<path fill="#E5E5E5" stroke="#E5E5E5" stroke-width="0.0938" d="M130.84,638.17c5.39,0.02,10.8,0.11,16.19-0.07
		c5.57,10.89,11.03,21.84,16.42,32.83c-5.45-0.08-10.9-0.08-16.35-0.03C141.6,660.03,136.29,649.06,130.84,638.17z"/>
	<path fill="#E5E5E5" stroke="#E5E5E5" stroke-width="0.0938" d="M148.83,638.17c5.52,0.08,11.04-0.05,16.55,0.11
		c5.16,10.99,10.9,21.71,16.14,32.67c-5.46-0.11-10.91-0.09-16.36-0.05C159.73,659.98,154.23,649.1,148.83,638.17z"/>
	<path fill="#E5E5E5" stroke="#E5E5E5" stroke-width="0.0938" d="M166.9,638.16c5.38,0.04,10.77,0.13,16.15-0.0699
		c5.68,10.84,10.92,21.89,16.39,32.83c-5.4-0.07-10.81-0.06-16.22-0.03C177.81,659.97,172.3,649.09,166.9,638.16z"/>
	<path fill="#E5E5E5" stroke="#E5E5E5" stroke-width="0.0938" d="M184.88,638.17c5.4,0.02,10.81,0.11,16.22-0.07
		c5.55,10.91,11.01,21.87,16.42,32.84c-5.46-0.1-10.91-0.09-16.37-0.03C195.66,660.03,190.35,649.06,184.88,638.17z"/>
	<path fill="#E5E5E5" stroke="#E5E5E5" stroke-width="0.0938" d="M220.93,638.16c5.5,0.1,11-0.05,16.5,0.13
		c5.21,10.95,10.78,21.7401,16.06,32.66c-5.4-0.12-10.81-0.08-16.21-0.06C231.84,659.98,226.37,649.08,220.93,638.16z"/>
	<path fill="#E4E4E4" stroke="#E4E4E4" stroke-width="0.0938" d="M274.96,638.15c3.15,0.05,6.3,0.04,9.45-0.03
		c-1,4.07-2.06,8.13-3.19,12.18C278.87,646.38,277.08,642.18,274.96,638.15z"/>
	<path fill="#E5E5E5" stroke="#E5E5E5" stroke-width="0.0938" d="M378.9,637.84c0.91,0.16,1.83,0.3199,2.75,0.48
		c5.39,10.99,11,21.87,16.35,32.88c-5.5-0.03-10.99-0.07-16.47,0.05c-1.95-3.59-3.7-7.28-5.63-10.88c-0.62-1.37-1.36-2.88-0.86-4.42
		C376.21,649.89,377.59,643.87,378.9,637.84z"/>
	<path fill="#E5E5E5" stroke="#E5E5E5" stroke-width="0.0938" d="M382.94,637.84c5.54,0.86,11.11-0.3701,16.65,0.29
		c5.35,11.07,10.97,22.01,16.31,33.09c-5.45-0.06-10.9-0.09-16.34,0.02C393.95,660.14,388.27,649.07,382.94,637.84z"/>
	<path fill="#E5E5E5" stroke="#E5E5E5" stroke-width="0.0938" d="M400.95,638.17c7.97-0.06,15.94-0.23,23.91,0.02
		c-0.01,10.99,0.03,21.97-0.03,32.96c-2.43,0.03-4.85,0.03-7.27,0.13C411.74,660.39,406.58,649.16,400.95,638.17z"/>
	<path fill="#E5E5E5" stroke="#E5E5E5" stroke-width="0.0938" d="M446.17,638.2c7.9-0.02,15.79,0.07,23.68-0.07
		c-5.44,10.91-10.81,21.84-16.25,32.75c-2.48,0-4.95,0-7.43,0C446.18,659.98,446.18,649.09,446.17,638.2z"/>
	<path fill="#E5E5E5" stroke="#E5E5E5" stroke-width="0.0938" d="M471.45,638.22c5.49-0.05,10.98,0.03,16.47-0.09
		c-5.41,10.93-10.93,21.81-16.32,32.75c-5.44,0.01-10.87-0.07-16.3,0.09C460.58,660,466.08,649.14,471.45,638.22z"/>
	<path fill="#E5E5E5" stroke="#E5E5E5" stroke-width="0.0938" d="M489.49,638.22c3.09-0.02,6.18-0.03,9.28-0.03
		c0.67,3.34,1.38,6.69,2.2,10.01c-3.76,7.57-7.58,15.11-11.32,22.69c-5.48-0.02-10.96-0.06-16.44,0.07
		C478.6,660.02,484.16,649.18,489.49,638.22z"/>
	<path fill="#F5F5F5" stroke="#F5F5F5" stroke-width="0.0938" d="M593.66,638.1c1.54-1.71,3.23,1.1801,1.73,2.38
		C593.95,642.15,592.42,639.2,593.66,638.1z"/>
	<path fill="#E5E5E5" stroke="#E5E5E5" stroke-width="0.0938" d="M594.91,643.71c0.9301-1.89,1.9-3.76,2.89-5.62
		c5.42,0.2,10.86,0.11,16.29,0.0699c-4.58,9-8.8701,18.16-13.67,27.05C599.15,657.91,596.91,650.82,594.91,643.71z"/>
	<path fill="#E5E5E5" stroke="#E5E5E5" stroke-width="0.0938" d="M615.7,638.53c5.28-0.85,10.99-0.04,16.45-0.38
		c-5.41,10.94-10.91,21.83-16.35,32.75c-4.7-0.04-9.39-0.07-14.08,0.06c-0.35-1.66-0.96-3.44,0.11-4.97
		C606.54,656.88,610.88,647.57,615.7,638.53z"/>
	<path fill="#E5E5E5" stroke="#E5E5E5" stroke-width="0.0938" d="M633.94,638.11c5.37,0.17,10.75,0.1,16.14,0.04
		c-5.49,10.89-10.8,21.86-16.28,32.75c-5.44-0.04-10.87-0.06-16.3,0.04C622.92,659.97,628.35,649,633.94,638.11z"/>
	<path fill="#E5E5E5" stroke="#E5E5E5" stroke-width="0.0938" d="M635.5,670.94c5.43-10.95,10.75-21.95,16.32-32.83
		c5.44,0.16,10.88,0.09,16.32,0.05c-5.43,10.92-10.9,21.81-16.34,32.72C646.36,670.87,640.93,670.83,635.5,670.94z"/>
	<path fill="#E5E5E5" stroke="#E5E5E5" stroke-width="0.0938" d="M669.91,638.11c5.42,0.17,10.85,0.08,16.28,0.06
		c-5.41,10.93-10.89,21.82-16.34,32.73c-5.45-0.04-10.9-0.07-16.35,0.06C658.88,659.96,664.36,649.02,669.91,638.11z"/>
	<path fill="#E5E5E5" stroke="#E5E5E5" stroke-width="0.0938" d="M687.95,638.12c5.38,0.14,10.77,0.09,16.16,0.04
		c-5.46,10.9-10.77,21.8701-16.27,32.75c-5.4301-0.06-10.86-0.0699-16.28,0.03C676.94,659.96,682.43,649.03,687.95,638.12z"/>
	<path fill="#E5E5E5" stroke="#E5E5E5" stroke-width="0.0938" d="M705.92,638.09c5.42,0.2,10.84,0.1,16.26,0.09
		c-5.42,10.92-10.9,21.82-16.35,32.74c-5.43-0.07-10.86-0.07-16.29,0.01C695.01,659.99,700.27,648.94,705.92,638.09z"/>
	<path fill="#E5E5E5" stroke="#E5E5E5" stroke-width="0.0938" d="M723.95,638.12c5.43,0.15,10.85,0.08,16.28,0.05
		c-5.4,10.94-10.88,21.85-16.35,32.76c-5.46-0.09-10.91-0.08-16.35,0C712.96,659.97,718.39,649.01,723.95,638.12z"/>
	<path fill="#E5E5E5" stroke="#E5E5E5" stroke-width="0.0938" d="M742.03,638.12c5.3799,0.14,10.75,0.09,16.1299,0.03
		c-5.46,10.91-10.77,21.89-16.28,32.77c-5.43-0.08-10.85-0.06-16.28,0C731.03,659.96,736.43,648.99,742.03,638.12z"/>
	<path fill="#E5E5E5" stroke="#E5E5E5" stroke-width="0.0938" d="M759.94,638.11c5.43,0.17,10.87,0.07,16.31,0.08
		c-5.46,10.9-10.9,21.81-16.37,32.71c-5.42-0.05-10.85-0.04-16.27,0.02C749.05,659.98,754.34,648.97,759.94,638.11z"/>
	<path fill="#E5E5E5" stroke="#E5E5E5" stroke-width="0.0938" d="M202.89,638.16c5.43,0.04,10.86,0.11,16.29-0.05
		c5.53,10.92,11.01,21.86,16.4,32.85c-5.46-0.14-10.91-0.09-16.37-0.07C213.79,659.97,208.27,649.1,202.89,638.16z"/>
	<path fill="#E5E5E5" stroke="#E5E5E5" stroke-width="0.0938" d="M238.93,638.16c5.41,0.04,10.84,0.1,16.26-0.03
		c5.49,10.92,11,21.84,16.37,32.82c-5.45-0.12-10.9-0.09-16.36-0.05C249.71,660.02,244.4,649.05,238.93,638.16z"/>
	<path fill="#E5E5E5" stroke="#E5E5E5" stroke-width="0.0938" d="M256.92,638.16c5.42,0.03,10.85,0.13,16.28-0.0699
		c2.39,4.92,5.28,9.65,7.18,14.78c-1.35,6.02-3.26,11.92-4.34,18.01c-0.69,0.01-2.07,0.02-2.76,0.03
		C267.83,659.99,262.36,649.08,256.92,638.16z"/>
	<path fill="#E5E5E5" stroke="#E5E5E5" stroke-width="0.0938" d="M94.83,642.01c5.12,9.5,9.76,19.26,14.57,28.92
		c-4.86-0.07-9.72-0.08-14.57-0.02C94.84,661.27,94.82,651.64,94.83,642.01z"/>
	<path fill="#E5E5E5" stroke="#E5E5E5" stroke-width="0.0938" d="M761.59,670.94c4.77-9.64,9.47-19.32,14.48-28.83
		c0.02,9.59,0,19.18,0.01,28.78C771.25,670.86,766.42,670.85,761.59,670.94z"/>
	<radialGradient id="SVGID_1_" cx="549.6938" cy="652.5609" r="27.1169" gradientUnits="userSpaceOnUse">
		<stop  offset="0" style="stop-color:#000000"/>
		<stop  offset="1" style="stop-color:#292929"/>
	</radialGradient>
	<path fill="url(#SVGID_1_)" d="M566.5601,631.3301c-6.52-5.6801-15.97-7.25-24.1801-4.8901c-5.2001,1.4401-10.03,4.29-13.58,8.3801
		c-10.48,12.0999-7.26,33.6799,7.1499,41.2799c10.3901,6.3099,25.1901,4.26,33.22-4.9401
		c3.6201-4.3198,6.6702-9.4199,7.3601-15.0999C577.72,646.8401,574,637.03,566.5601,631.3301z"/>
	<radialGradient id="SVGID_2_" cx="326.9883" cy="656.1788" r="27.0416" gradientUnits="userSpaceOnUse">
		<stop  offset="0" style="stop-color:#000000"/>
		<stop  offset="1" style="stop-color:#292929"/>
	</radialGradient>
	<path fill="url(#SVGID_2_)" d="M345.87,636.13c-7.34-6.66-18.2799-8.52-27.6801-5.9301c-11.83,3.24-18.73,16.05-18.1499,27.79
		c0.11,13.22,12.03,24.38,24.95,25.13c8.14,1.03,15.95-3.0499,21.6801-8.5299C356.67,664.27,356.39,646,345.87,636.13z"/>
	<path fill="#E5E5E5" stroke="#E5E5E5" stroke-width="0.0938" d="M491.33,670.97c3.37-6.75,6.52-13.62,10.22-20.2
		c1.17,6.77,2.88,13.43,4.06,20.2C500.85,670.82,496.08,670.83,491.33,670.97z"/>
	<path fill="#E5E5E5" stroke="#E5E5E5" stroke-width="0.0938" d="M428.17,655.24c4.87,0.01,9.75,0.02,14.63-0.02
		c-0.04,5.57-0.03,11.14-0.02,16.71c-4.87-0.01-9.73-0.01-14.58-0.01C428.2,666.36,428.22,660.8,428.17,655.24z"/>
	<path fill="#E9E9E9" stroke="#E9E9E9" stroke-width="0.0938" d="M371.76,671.34c0.76-3.91,1.62-7.8,2.65-11.64
		c1.67,3.89,3.66,7.64,5.5,11.47C377.19,671.16,374.47,671.11,371.76,671.34z"/>
	<path fill="#6F6F6F" stroke="#6F6F6F" stroke-width="0.0938" d="M424.82,674.51l2.13,0.07c-0.65,4.77-0.21,9.6-0.3,14.41
		c-0.08,18.48,0.11,36.96-0.1,55.44c5.81,0.11,11.67-0.52,17.45,0.22c0.55,0.38,1.65,1.13,2.2,1.5099
		c-7.12,0.42-14.27,0.26-21.39,0.09C424.72,722.34,424.71,698.42,424.82,674.51z"/>
	<path fill="#E5E5E5" stroke="#E5E5E5" stroke-width="0.0938" d="M428.13,673.38c4.91-0.09,9.82-0.11,14.74,0.02
		c-0.17,5.49-0.08,10.98-0.09,16.48c-4.87-0.03-9.73-0.02-14.59-0.02C428.19,684.36,428.26,678.87,428.13,673.38z"/>
	<path fill="#E5E5E5" stroke="#E5E5E5" stroke-width="0.0938" d="M428.19,691.23c4.86,0.02,9.72,0.03,14.59-0.01
		c-0.01,5.58-0.01,11.15,0,16.73c-4.87-0.01-9.73,0-14.59,0C428.21,702.37,428.21,696.8,428.19,691.23z"/>
	<path fill="#E5E5E5" stroke="#E5E5E5" stroke-width="0.0938" d="M428.13,709.37c4.88-0.07,9.77-0.03,14.66-0.06
		c-0.04,5.61,0.01,11.22-0.04,16.84c-4.85-0.08-9.7-0.04-14.55-0.06C428.19,720.51,428.26,714.94,428.13,709.37z"/>
	<path fill="#F5F5F5" stroke="#F5F5F5" stroke-width="0.0938" d="M428.22,727.46c4.84,0.04,9.69,0.04,14.54-0.01
		c-0.34,5.33,0.52,10.75-0.55,16.02c-1.98-4.5699-0.91-9.65-1.17-14.45c-3.72-0.09-7.45-0.08-11.17,0.03
		c-0.16,4.8,0.62,9.78-1.11,14.39C427.7,738.18,428.56,732.78,428.22,727.46z"/>
	<path fill="#E5E5E5" stroke="#E5E5E5" stroke-width="0.0938" d="M429.87,729.05c3.72-0.11,7.45-0.12,11.17-0.03
		c0.26,4.8-0.81,9.88,1.17,14.45c-4.47-0.48-8.98-0.4399-13.45-0.03C430.49,738.83,429.71,733.85,429.87,729.05z"/>
	<path fill="#424242" stroke="#424242" stroke-width="0.0938" d="M668.39,1207.51c9.91-2.33,20.32,5.4,21.37,15.4
		c1.48,7.9199-3.25,16.01-10.05,19.86c-8.33,4.52-19.63,1.08-24.22-7.14c-2.73-5.3199-3.84-11.86-1.41-17.5
		C656.36,1212.22,662.38,1208.61,668.39,1207.51 M657.69,1214.76c-6.06,7.49-3.9,19.87,3.8,25.4299
		c6.36-9.86,12.73-19.72,19.26-29.46C673.28,1206.75,663.41,1208.6,657.69,1214.76 M681.53,1211.73
		c-6.26,9.85-12.67,19.62-19.13,29.35c3.59,1.67,7.54,2.87,11.54,2.0801c7.01-0.6901,12.27-6.66,14.26-13.0901
		C689.86,1223.37,687.23,1215.72,681.53,1211.73z"/>
	<path fill="#D8D8D8" stroke="#D8D8D8" stroke-width="0.0938" d="M657.69,1214.76c5.72-6.16,15.59-8.01,23.06-4.03
		c-6.53,9.74-12.9,19.6-19.26,29.46C653.79,1234.63,651.63,1222.25,657.69,1214.76z"/>
	<path fill="#D8D8D8" stroke="#D8D8D8" stroke-width="0.0938" d="M681.53,1211.73c5.7,3.99,8.33,11.64,6.67,18.34
		c-1.99,6.4301-7.25,12.4-14.26,13.0901c-4,0.7899-7.95-0.41-11.54-2.0801C668.86,1231.35,675.27,1221.58,681.53,1211.73z"/>
	<path fill="#D8D8D8" stroke="#D8D8D8" stroke-width="0.0938" d="M635.09,1263.65c31.87,10.85,63.74,21.7,95.59,32.61
		c5.43,25.58,10.87,51.15,16.29,76.72C751.15,1393.66,756.3,1414.16,759.4,1435.05c19.44,119.1699,38.89,238.34,58.3199,357.5199
		c-17.15,3.2001-34.18,7.13-51.25,10.75c-5.3199,1.01-10.6,2.2001-15.89,3.3101C712.11,1625.63,673.67,1444.62,635.09,1263.65z"/>
	<path fill="#E5E5E5" stroke="#E5E5E5" stroke-width="0.0938" d="M815.71,1694.88c4.81-0.79,9.63-1.55,14.48-2.14
		c0.33,1.98,0.69,3.9401,1.04,5.95c-4.79,0.7201-9.54,1.6901-14.32,2.4601C816.49,1699.0601,816.1,1696.95,815.71,1694.88z"/>
	<path fill="#E5E5E5" stroke="#E5E5E5" stroke-width="0.0938" d="M46.56,1696.1801c4.77,0.73,9.55,1.48,14.33,2.2
		c-0.32,2.05-0.69,4.0599-0.99,6.15c-4.8-0.63-9.57-1.4301-14.36-2.0601C45.87,1700.34,46.21,1698.26,46.56,1696.1801z"/>
	<path fill="#E5E5E5" stroke="#E5E5E5" stroke-width="0.0938" d="M817.14,1702.84c4.79-0.89,9.59-1.6899,14.36-2.65
		c0.39,2.4801,0.71,4.9901,1,7.52c-4.78,0.64-9.49,1.65-14.25,2.42C817.89,1707.6801,817.53,1705.26,817.14,1702.84z"/>
	<path fill="#E5E5E5" stroke="#E5E5E5" stroke-width="0.0938" d="M45.35,1704.01c4.78,0.77,9.56,1.52,14.35,2.22
		c-0.45,2.48-0.89,4.96-1.33,7.46c-4.78-0.86-9.59-1.6-14.37-2.5C44.5,1708.8,44.93,1706.39,45.35,1704.01z"/>
	<path fill="#E5E5E5" stroke="#E5E5E5" stroke-width="0.0938" d="M818.64,1711.73c4.73-0.7999,9.46-1.63,14.17-2.5699
		c0.44,2.4299,0.81,4.87,1.16,7.33c-4.71,0.71-9.39,1.5701-14.05,2.51C819.48,1716.5699,819.05,1714.13,818.64,1711.73z"/>
	<path fill="#E5E5E5" stroke="#E5E5E5" stroke-width="0.0938" d="M43.84,1712.87c4.76,0.8,9.5,1.6801,14.26,2.41
		c-0.34,2.36-0.69,4.74-1.02,7.13c-4.77-0.65-9.51-1.42-14.25-2.24C43.17,1717.72,43.51,1715.29,43.84,1712.87z"/>
	<path fill="#E5E5E5" stroke="#E5E5E5" stroke-width="0.0938" d="M820.2,1720.47c4.71-0.6899,9.4-1.5699,14.07-2.51
		c0.5,2.5801,0.89,5.1801,1.27,7.8c-4.78,0.5699-9.54,1.35-14.27,2.24C820.89,1725.48,820.53,1722.98,820.2,1720.47z"/>
	<path fill="#E5E5E5" stroke="#E5E5E5" stroke-width="0.0938" d="M42.41,1721.9399c4.83,0.4701,9.59,1.4601,14.38,2.2401
		c-0.5,2.45-0.97,4.9099-1.45,7.3999c-4.74-0.9299-9.51-1.75-14.24-2.76C41.57,1726.52,42,1724.23,42.41,1721.9399z"/>
	<path fill="#E5E5E5" stroke="#E5E5E5" stroke-width="0.0938" d="M821.45,1729.51c4.8-0.6801,9.6-1.4301,14.38-2.3101
		c0.47,2.3,0.93,4.5901,1.4,6.92c-4.79,0.95-9.62,1.74-14.39,2.8C822.36,1734.4399,821.91,1731.97,821.45,1729.51z"/>
	<path fill="#E5E5E5" stroke="#E5E5E5" stroke-width="0.0938" d="M39.63,1737.9301c0.38-2.4801,0.75-4.92,1.13-7.3601
		c4.78,0.76,9.51,1.78,14.28,2.6101c-0.49,2.35-0.93,4.6899-1.33,7.08C48.98,1739.66,44.3,1738.83,39.63,1737.9301z"/>
	<path fill="#E5E5E5" stroke="#E5E5E5" stroke-width="0.0938" d="M823.06,1738.39c4.87-0.65,9.64-1.9,14.53-2.47
		c0.31,2.34,0.67,4.6799,1.02,7.0499c-4.78,0.9501-9.57,1.8401-14.34,2.85C823.84,1743.33,823.44,1740.86,823.06,1738.39z"/>
	<path fill="#E5E5E5" stroke="#E5E5E5" stroke-width="0.0938" d="M39.3,1739.67c4.68,0.6699,9.32,1.5499,13.98,2.38
		c-0.23,2.35-0.44,4.71-0.65,7.09c-4.84-0.73-9.67-1.55-14.48-2.4C38.57,1744.37,38.96,1742.01,39.3,1739.67z"/>
	<path fill="#E5E5E5" stroke="#E5E5E5" stroke-width="0.0938" d="M824.56,1747.26c4.84-0.61,9.56-1.85,14.38-2.59
		c0.36,2.5399,0.77,5.11,1.18,7.6599c-4.88,0.8301-9.78,1.5-14.65,2.36C825.15,1752.2,824.83,1749.72,824.56,1747.26z"/>
	<path fill="#E5E5E5" stroke="#E5E5E5" stroke-width="0.0938" d="M37.97,1748.42c4.8,0.7799,9.6,1.59,14.39,2.4399
		c-0.4,2.41-0.82,4.85-1.26,7.28c-4.74-0.79-9.48-1.63-14.23-2.41C37.22,1753.28,37.61,1750.85,37.97,1748.42z"/>
	<path fill="#E5E5E5" stroke="#E5E5E5" stroke-width="0.0938" d="M825.83,1756.21c4.79-0.5299,9.51-1.5299,14.28-2.21
		c0.79,2.1801,0.76,4.5601,1.09,6.87c-4.68,0.8199-9.34,1.77-14.03,2.47C826.74,1760.95,826.28,1758.5699,825.83,1756.21z"/>
	<path fill="#E5E5E5" stroke="#E5E5E5" stroke-width="0.0938" d="M36.61,1757.34c4.75,0.8301,9.51,1.5901,14.25,2.49
		c-0.47,2.38-0.9,4.76-1.31,7.1801c-4.77-0.65-9.48-1.72-14.25-2.41C35.76,1762.17,36.19,1759.74,36.61,1757.34z"/>
	<path fill="#E5E5E5" stroke="#E5E5E5" stroke-width="0.0938" d="M827.58,1765.0601c4.69-0.8401,9.35-1.8601,14.09-2.4301
		c0.37,2.46,0.79,4.95,1.29,7.42c-4.7401,0.8999-9.51,1.63-14.28,2.2799C828.31,1769.89,827.94,1767.46,827.58,1765.0601z"/>
	<path fill="#E5E5E5" stroke="#E5E5E5" stroke-width="0.0938" d="M35.04,1766.14c4.71,0.9,9.43,1.72,14.14,2.62
		c-0.48,2.39-0.96,4.8199-1.41,7.24c-4.7-0.89-9.42-1.64-14.15-2.26C34.07,1771.1801,34.54,1768.66,35.04,1766.14z"/>
	<path fill="#E4E4E4" stroke="#E4E4E4" stroke-width="0.0938" d="M828.98,1774.09c4.74-0.8099,9.47-1.63,14.23-2.3199
		c0.36,2.02,0.7,4.03,1.07,6.08c-4.73,0.74-9.44,1.6-14.16,2.42C829.75,1778.1899,829.37,1776.13,828.98,1774.09z"/>
	<path fill="#E5E5E5" stroke="#E5E5E5" stroke-width="0.0938" d="M33.3,1775.21c4.73,0.8401,9.46,1.64,14.22,2.27
		c-0.24,2.14-0.49,4.3101-0.74,6.48c-4.8-0.89-9.64-1.61-14.44-2.52C32.67,1779.34,32.98,1777.26,33.3,1775.21z"/>
	<path fill="#666666" stroke="#666666" stroke-width="0.0938" d="M817.72,1792.5699c0.96,0.0701,1.91,0.17,2.88,0.3601
		c-5.05,2.83-11,2.62-16.38,4.4399l0.03,1.47c3.17,16.7101,6.99,33.3,10.39,49.9701c0.49,1.98-0.41,3.8999-1.1,5.74
		c-7.94,19.45-15.45,39.0699-23.47,58.49c-1.37-0.64-2.82-1.3-2.84-3c-7.46-34.26-14.26-68.6801-22.01-102.86
		c-0.18-0.4901-0.54-1.4701-0.71-1.9601c1.14-0.22,2.29-0.4199,3.45-0.6c-0.37-0.33-1.12-0.98-1.4901-1.3
		C783.54,1799.7,800.57,1795.77,817.72,1792.5699z"/>
	<path fill="#F5F5F5" stroke="#F5F5F5" stroke-width="0.0938" d="M76.28,1803.03c10.5,2.4199,21.05,4.61,31.55,7.03
		c-11.95,29.7599-23.63,59.6299-35.63,89.3799C73.11,1867.3,75.14,1835.17,76.28,1803.03z"/>
	<path fill="#F5F5F5" stroke="#F5F5F5" stroke-width="0.0938" d="M530.5701,330.6c-14.8601-27.34-41.25-49.0499-72.03-55.4
		c-10.9301-2.58-22.25-2.29-33.39-1.9399c-43.2001,2.8999-81.64,35.95-93.53,77.1599c-5.2,19.3301-5.24,40.0701-0.1,59.41
		c5.87,21.38,19.36,40.2101,36.45,54.13c14.53,12.05,32.39,20.05,51.1201,22.55c15.7,2.7,31.8799,1.04,47.1399-3.24
		c21.16-6.13,39.5801-19.8,53.3601-36.78C545.98,414.6499,549.76,366.9199,530.5701,330.6z"/>
</g>
</svg>
