<?xml version="1.0" encoding="iso-8859-1"?>
<!-- Generator: Adobe Illustrator 19.0.0, SVG Export Plug-In . SVG Version: 6.00 Build 0)  -->
<svg version="1.1" id="Layer_1" xmlns="http://www.w3.org/2000/svg" xmlns:xlink="http://www.w3.org/1999/xlink" x="0px" y="0px"
	 viewBox="0 0 508 508" style="enable-background:new 0 0 508 508;" xml:space="preserve">
<g>
	<g>
		<path d="M71.8,369.6l-34-34c-1.6-1.6-4-1.6-5.6,0c-1.6,1.6-1.6,4,0,5.6l34,34c0.8,0.8,1.6,1.2,2.8,1.2c1.2,0,2-0.4,2.8-1.2
			C73.4,373.6,73.4,371.2,71.8,369.6z"/>
	</g>
</g>
<g>
	<g>
		<path d="M499.8,109.2L398.6,8c-5.2-5.2-12-8-19.6-8c-7.2,0-14.4,2.8-19.6,8L8.2,359.6c-5.2,5.2-8,12.4-8,19.6s2.8,14.4,8,19.6
			L109.8,500c5.2,5.2,12,8,19.6,8c7.2,0,14.4-2.8,19.2-8.4l351.2-351.2c5.2-5.2,8-12,8-19.6C507.8,121.6,505,114.4,499.8,109.2z
			 M494.2,143.2L143,494.4c-3.6,3.6-8.8,5.6-14,5.6s-10.4-2-14-5.6L13.8,393.2c-3.6-3.6-5.6-8.8-5.6-14s2-10.4,5.6-14L365.4,13.6
			c3.6-3.6,8.8-5.6,14-5.6s10,2,14,5.6l100.8,101.6c3.6,3.6,5.6,8.8,5.6,14S497.8,139.6,494.2,143.2z"/>
	</g>
</g>
<g>
	<g>
		<path d="M223,218l-34-34c-1.6-1.6-4-1.6-5.6,0c-1.6,1.6-1.6,4,0,5.6l34,34c0.8,0.8,1.6,1.2,2.8,1.2s2.4-0.4,2.8-1.2
			C224.6,222,224.6,219.6,223,218z"/>
	</g>
</g>
<g>
	<g>
		<path d="M180.6,226l-16.8-16.8c-1.6-1.6-4-1.6-5.6,0c-1.6,1.6-1.6,4,0,5.6l17.2,17.2c0.8,0.8,1.6,1.2,2.8,1.2c0.8,0,2-0.4,2.4-1.6
			C182.2,230,182.2,227.6,180.6,226z"/>
	</g>
</g>
<g>
	<g>
		<path d="M155.8,251.6L139,234.8c-1.6-1.6-4-1.6-5.6,0c-1.6,1.6-1.6,4,0,5.6l16.8,16.8c0.8,0.8,1.6,1.2,2.8,1.2
			c0.8,0,2-0.4,2.8-1.2C157.4,255.6,157.4,253.2,155.8,251.6z"/>
	</g>
</g>
<g>
	<g>
		<path d="M130.6,276.8L113.8,260c-1.6-1.6-4-1.6-5.6,0c-1.6,1.6-1.6,4,0,5.6l16.8,16.8c0.8,0.8,1.6,1.2,2.8,1.2
			c0.8,0,2-0.4,2.8-1.2C132.2,280.8,132.2,278.4,130.6,276.8z"/>
	</g>
</g>
<g>
	<g>
		<path d="M105.4,302l-16.8-16.8c-1.6-1.6-4-1.6-5.6,0c-1.6,1.6-1.6,4,0,5.6l16.8,16.8c0.8,0.8,1.6,1.2,2.8,1.2c0.8,0,2-0.4,2.8-1.2
			C107,306,107,303.6,105.4,302z"/>
	</g>
</g>
<g>
	<g>
		<path d="M80.2,327.2l-16.8-16.8c-1.6-1.6-4-1.6-5.6,0c-1.6,1.6-1.6,4,0,5.6l16.8,16.8c0.8,0.8,1.6,1.2,2.8,1.2
			c0.8,0,2-0.4,2.8-1.2C81.8,331.2,81.8,328.8,80.2,327.2z"/>
	</g>
</g>
<g>
	<g>
		<path d="M332.2,74.8L315.4,58c-1.6-1.6-4-1.6-5.6,0c-1.6,1.6-1.6,4,0,5.6l16.8,16.8c0.8,0.8,1.6,1.2,2.8,1.2s2-0.4,2.8-1.2
			C333.8,78.8,333.8,76.4,332.2,74.8z"/>
	</g>
</g>
<g>
	<g>
		<path d="M307,100l-16.8-16.8c-1.6-1.6-4-1.6-5.6,0c-1.6,1.6-1.6,4,0,5.6l16.8,16.8c0.8,0.8,1.6,1.2,2.8,1.2s2-0.4,2.8-1.2
			C308.6,104,308.6,101.6,307,100z"/>
	</g>
</g>
<g>
	<g>
		<path d="M281.8,125.2L265,108.4c-1.6-1.6-4-1.6-5.6,0c-1.6,1.6-1.6,4,0,5.6l16.8,17.2c0.8,0.8,1.6,1.2,2.8,1.2s2-0.4,2.8-1.6
			C283.4,129.2,283.4,126.8,281.8,125.2z"/>
	</g>
</g>
<g>
	<g>
		<path d="M256.6,150.4l-16.8-16.8c-1.6-1.6-4-1.6-5.6,0c-1.6,1.6-1.6,4,0,5.6l16.8,17.2c0.8,0.8,1.6,1.2,2.8,1.2
			c1.2,0,2-0.4,2.8-1.6C258.2,154.4,258.2,152,256.6,150.4z"/>
	</g>
</g>
<g>
	<g>
		<path d="M231.4,176l-16.8-16.8c-1.6-1.6-4-1.6-5.6,0c-1.6,1.6-1.6,4,0,5.6l16.8,16.8c0.8,0.8,1.6,1.2,2.8,1.2s2-0.4,2.8-1.2
			C233,180,233,177.6,231.4,176z"/>
	</g>
</g>
<g>
	<g>
		<path d="M374.6,66.8l-34-34c-1.6-1.6-4-1.6-5.6,0c-1.6,1.6-1.6,4,0,5.6l34,34c0.8,0.8,1.6,1.2,2.8,1.2c0.8,0,2-0.4,2.8-1.2
			C376.2,70.8,376.2,68.4,374.6,66.8z"/>
	</g>
</g>
<g>
</g>
<g>
</g>
<g>
</g>
<g>
</g>
<g>
</g>
<g>
</g>
<g>
</g>
<g>
</g>
<g>
</g>
<g>
</g>
<g>
</g>
<g>
</g>
<g>
</g>
<g>
</g>
<g>
</g>
</svg>
