<?xml version="1.0" encoding="iso-8859-1"?>
<!-- Generator: Adobe Illustrator 19.0.0, SVG Export Plug-In . SVG Version: 6.00 Build 0)  -->
<svg version="1.1" id="Layer_1" xmlns="http://www.w3.org/2000/svg" xmlns:xlink="http://www.w3.org/1999/xlink" x="0px" y="0px"
	 viewBox="0 0 512 512" style="enable-background:new 0 0 512 512;" xml:space="preserve">
<g>
	<g>
		<path d="M509.606,94.829L417.171,2.393c-3.191-3.191-8.364-3.191-11.554,0L2.393,405.617c-3.191,3.191-3.191,8.364,0,11.554
			l92.436,92.436c1.595,1.595,3.686,2.393,5.777,2.393c2.09,0,4.182-0.797,5.777-2.393l403.224-403.224
			C512.798,103.193,512.798,98.02,509.606,94.829z M100.606,492.276l-11.555-11.555l49.872-49.872c3.191-3.191,3.191-8.364,0-11.554
			c-3.191-3.191-8.364-3.191-11.554,0l-49.872,49.871l-57.772-57.772l22.048-22.048l32.737,32.738
			c1.595,1.595,3.686,2.393,5.777,2.393c2.091,0,4.182-0.797,5.777-2.393c3.191-3.191,3.191-8.364,0-11.554l-32.737-32.737
			l22.048-22.048l17.332,17.332c1.595,1.596,3.686,2.393,5.777,2.393s4.182-0.797,5.777-2.393c3.191-3.191,3.191-8.363,0-11.554
			l-17.332-17.332l22.048-22.048l17.332,17.332c1.595,1.595,3.686,2.393,5.777,2.393c2.09,0,4.182-0.797,5.777-2.393
			c3.191-3.191,3.191-8.364,0-11.554l-17.332-17.332l22.048-22.048l17.332,17.332c1.595,1.595,3.686,2.393,5.777,2.393
			c2.091,0,4.182-0.797,5.777-2.393c3.191-3.191,3.191-8.364,0-11.554l-17.332-17.332l22.048-22.048l17.332,17.332
			c1.595,1.595,3.686,2.393,5.777,2.393c2.09,0,4.182-0.797,5.777-2.393c3.191-3.191,3.191-8.364,0-11.554l-17.332-17.332
			l22.048-22.048l32.738,32.737c1.595,1.595,3.686,2.393,5.777,2.393s4.182-0.797,5.777-2.393c3.191-3.191,3.191-8.364,0-11.554
			l-32.737-32.737l22.048-22.048l17.332,17.332c1.595,1.595,3.686,2.393,5.777,2.393c2.09,0,4.182-0.797,5.777-2.393
			c3.191-3.191,3.191-8.364,0-11.554l-17.332-17.332l22.048-22.048l17.332,17.332c1.595,1.595,3.686,2.393,5.777,2.393
			s4.182-0.797,5.777-2.393c3.191-3.191,3.191-8.364,0-11.554l-17.332-17.332l22.048-22.048l17.332,17.332
			c1.595,1.595,3.686,2.393,5.777,2.393c2.091,0,4.182-0.797,5.777-2.393c3.191-3.191,3.191-8.364,0-11.554l-17.332-17.332
			l22.048-22.048l17.332,17.332c1.595,1.595,3.686,2.393,5.777,2.393c2.09,0,4.182-0.797,5.777-2.393
			c3.191-3.191,3.191-8.364,0-11.554l-17.332-17.332l22.048-22.048l32.737,32.737c1.595,1.596,3.686,2.393,5.777,2.393
			c2.09,0,4.182-0.797,5.777-2.393c3.191-3.191,3.191-8.364,0-11.554L389.34,41.779l22.048-22.048l57.779,57.766L150.478,396.186
			c-3.191,3.191-3.191,8.364,0,11.554c1.595,1.595,3.686,2.393,5.777,2.393c2.091,0,4.182-0.797,5.777-2.393L480.721,89.051
			l11.555,11.555L100.606,492.276z"/>
	</g>
</g>
<g>
</g>
<g>
</g>
<g>
</g>
<g>
</g>
<g>
</g>
<g>
</g>
<g>
</g>
<g>
</g>
<g>
</g>
<g>
</g>
<g>
</g>
<g>
</g>
<g>
</g>
<g>
</g>
<g>
</g>
</svg>
