<?xml version="1.0" encoding="iso-8859-1"?>
<!-- Generator: Adobe Illustrator 19.0.0, SVG Export Plug-In . SVG Version: 6.00 Build 0)  -->
<svg version="1.1" id="Layer_1" xmlns="http://www.w3.org/2000/svg" xmlns:xlink="http://www.w3.org/1999/xlink" x="0px" y="0px"
	 viewBox="0 0 460 460" style="enable-background:new 0 0 460 460;" xml:space="preserve">
<path style="fill:#E5C400;" d="M453.338,83.637L376.363,6.662c-8.882-8.882-23.284-8.883-32.166,0L6.661,344.197
	c-8.882,8.882-8.882,23.284,0,32.166l76.975,76.975c8.882,8.882,23.284,8.882,32.166,0l337.535-337.535
	C462.221,106.921,462.221,92.519,453.338,83.637z M377.023,82.977c-6.327-6.327-6.327-16.586,0-22.913s16.586-6.327,22.913,0
	s6.327,16.586,0,22.913S383.351,89.304,377.023,82.977z"/>
<rect x="376.672" y="146.271" transform="matrix(-0.7071 -0.7071 0.7071 -0.7071 565.1781 536.647)" style="fill:#59595A;" width="34.121" height="10"/>
<rect x="346.939" y="176.01" transform="matrix(-0.7071 -0.7071 0.7071 -0.7071 493.3933 566.3895)" style="fill:#59595A;" width="34.121" height="10"/>
<rect x="317.201" y="205.75" transform="matrix(-0.7071 -0.7071 0.7071 -0.7071 421.5968 596.1313)" style="fill:#59595A;" width="34.121" height="10"/>
<rect x="287.451" y="235.493" transform="matrix(-0.7071 -0.7071 0.7071 -0.7071 349.78 625.8705)" style="fill:#59595A;" width="34.122" height="10"/>
<rect x="257.714" y="265.235" transform="matrix(-0.7071 -0.7071 0.7071 -0.7071 277.9847 655.6155)" style="fill:#59595A;" width="34.121" height="10"/>
<rect x="227.973" y="294.977" transform="matrix(-0.7071 -0.7071 0.7071 -0.7071 206.1815 685.3576)" style="fill:#59595A;" width="34.121" height="10"/>
<rect x="198.227" y="324.719" transform="matrix(-0.7071 -0.7071 0.7071 -0.7071 134.3731 715.0963)" style="fill:#59595A;" width="34.122" height="10"/>
<rect x="168.49" y="354.461" transform="matrix(-0.7071 -0.7071 0.7071 -0.7071 62.5763 744.8414)" style="fill:#59595A;" width="34.121" height="10"/>
<rect x="138.748" y="384.202" transform="matrix(-0.7071 -0.7071 0.7071 -0.7071 -9.2255 774.5829)" style="fill:#59595A;" width="34.121" height="10"/>
<rect x="109.012" y="413.946" transform="matrix(-0.7071 -0.7071 0.7071 -0.7071 -81.0216 804.3324)" style="fill:#59595A;" width="34.121" height="10"/>
<path style="opacity:0.3;fill:#5B5B5F;enable-background:new    ;" d="M453.338,83.637L414.851,45.15l-14.914,14.914l0,0
	c6.327,6.327,6.327,16.586,0,22.913s-16.586,6.327-22.913,0l0,0L45.148,414.851l38.487,38.487c8.882,8.882,23.284,8.883,32.166,0
	l337.535-337.535C462.221,106.921,462.221,92.519,453.338,83.637z"/>
<g>
</g>
<g>
</g>
<g>
</g>
<g>
</g>
<g>
</g>
<g>
</g>
<g>
</g>
<g>
</g>
<g>
</g>
<g>
</g>
<g>
</g>
<g>
</g>
<g>
</g>
<g>
</g>
<g>
</g>
</svg>
