<?xml version="1.0" encoding="utf-8"?>
<!-- Uploaded to: SVG Repo, www.svgrepo.com, Generator: SVG Repo Mixer Tools -->
<svg width="800px" height="800px" viewBox="0 0 1024 1024" class="icon"  version="1.1" xmlns="http://www.w3.org/2000/svg"><path d="M320.22 209.72c-8.28-4.5-57.5-34.31-65.54-60.1s14-85.18 30.05-82.58 9.46 36.68 20.82 58.21 16.09 42.35 17.27 57.26a188.45 188.45 0 0 1 0 28.16zM383.41 205.7c0-9.46-8.76-33.13-6.16-54.42s21.53-45.19 26-57.5 9.23-29.34 17-29.34 28.63 32.89 23.66 62.7-8.22 49.46-19.81 60.86-37.38 20.82-37.38 20.82z" fill="#F0A1A4" /><path d="M372.71 667.75c12.51 30.2 8.52 128.72 11.36 153.33s7.57 54.89 7.57 78.56-7.1 37.15-3.19 45.67 19.88 20.23 25.91 10.65 0.71-128.44 0-142.3 2.85-38.71 2.85-51.84-5.33-39.75-5.69-53.24-0.35-29.81 12.78-36.56 50.4 11.36 70.27 10.29 46.14-16.68 50.4-14.55 0.35 12.07 7.81 22.71 18.46 25.2 23.42 40.11 16 48.27 21.3 55c2.48 3.9 1.77 6.39 1.77 6.39s-0.35 61-4.61 79.15-14.55 59.63-10.29 72 7.1 16.76 20.94 16.36 12.78-2.88 11.71-17.78-1-20.23 0.57-34.78 25.69-93.7 23.92-115.7-27.33-79.5-28.39-93.34 3.55-15.62 3.55-24.49 4.26-46.85 2.48-58.56-70.63-72.4-126.35-102.57-97.61-93.26-97.26-149.03 8.87-64.6 10.65-91.92-22-33-45.78-33-42.59 9.94-40.46 29.81 13.49 83.41 13.49 108.61-8.87 85.54-9.58 107.9-3.55 44-1.06 72.76 5.32 40.11 16 58.21 24.2 28.73 33.91 52.15z" fill="#F4E6DD" /><path d="M461.25 644.14c9.43 12.86-31.94 107.19-29.81 140.55s9.62 74.53 15.46 99.38 8.91 63.18 15.54 67.43 10.89 7.1 14.44 3.55 14.2-12.07 14.2-17.75-12.07-25.55-17-39S457 811 457.7 795.34c1.77-4.08 0.89-1.77 2.66-5.15s60.28-90 68.8-119.31 4.73-24.61 10.41-34.07c4.73-7.1 59.63-15.14 66.72-13.25s54.42 74.53 67.91 92.28 52.53 78.79 54.66 89.44-1.42 14.91 0 23.42 6.39 39.75 7.81 57.5 1.42 51.11 6.39 58.21 12.78 9.94 24.84-0.71S753.7 820.89 748 774s2.13-33.36-3.55-54.66-20.59-13.49-32.65-43.3 5.68-107.19-7.1-146.23-18.46-37.62-18.46-37.62 83.76-80.92 3.55-159c-8.52-7.81-18.22 40.46-17.27 67.91s8 88.49 1.42 89.91-64.36 3.79-87.55 3.79-53.45-6.8-66.22-6.8-52.06 5.44-83.29-32.89-36.44-129.19-32.65-151-1.07-38.33-1.07-38.33-19.75 53-21.17 82.34-3.31 189.29 9.94 225.26S414 622.12 426 628.76c14 7.77 27.44 4.74 35.25 15.38z" fill="#F0A1A4" /><path d="M307.35 245.57c-0.35-17.75 3.05-29.81 14.41-40.46 7.89-7.4 54.3-14.91 72.4 3.19s13.49 35.49 12.07 50.75-27 62.47-40.82 61.4-47.13-36.9-52.41-53.94-5.56-16.38-5.65-20.94z" fill="#F3E5DD" /><path d="M379.57 309.1zM348.77 310.19z" fill="#F0A1A4" /><path d="M376.34 269.22c-0.33-7.92 12.5-30.4 16.05-41.76a34.69 34.69 0 0 0 0-20.78c-19.18-16-63-8.74-70.63-1.58a47.43 47.43 0 0 0-6 6.74s2.08 13.13 9.89 20.94 16.68 13.64 20.23 26 2.87 51.41 2.87 51.42l29.66-1.09h1.15c0-0.15 0.45-10.7 0-19-0.37-6.61-2.98-15.2-3.22-20.89z" fill="#EFA3A3" /><path d="M326.73 245.57s-9.23 10.65-7.45 15.62 2.84 7.45 7.45 7.45 8.87-3.55 8.52-7.1c0.02-6.3-8.52-15.97-8.52-15.97zM391.09 245.57s-9.23 10.65-7.45 15.62 2.84 7.45 7.45 7.45 8.87-3.55 8.52-7.1c0.02-6.3-8.52-15.97-8.52-15.97zM360.92 301.05c5.53-1.28 16.33 0.95 18.46 5.21s-4 15.62-12.07 16.33-18.69-8-18.69-12.39 6.15-7.73 12.3-9.15z" fill="#6E6C5B" /></svg>