<?xml version="1.0" encoding="utf-8"?>
<!-- Uploaded to: SVG Repo, www.svgrepo.com, Generator: SVG Repo Mixer Tools -->
<svg width="800px" height="800px" viewBox="0 0 1024 1024" class="icon"  version="1.1" xmlns="http://www.w3.org/2000/svg"><path d="M276.3 680.1h-156c-63.9 0-115.8-51.9-115.8-115.8v-4.9c0-63.9 51.9-115.8 115.8-115.8h156c63.9 0 115.8 51.9 115.8 115.8v4.9c0 63.9-51.9 115.8-115.8 115.8z m-156-214.4c-51.7 0-93.8 42.1-93.8 93.8v4.9c0 51.7 42.1 93.8 93.8 93.8h156c51.7 0 93.8-42.1 93.8-93.8v-4.9c0-51.7-42.1-93.8-93.8-93.8h-156z" fill="#C13105" /><path d="M687.6 575.7S876.3 393.5 1010 424.9v47.2s-117.9 19.7-137.6 82.6c-19.7 62.9-11.8 193-184.8 131.9s0-110.9 0-110.9z" fill="#F75708" /><path d="M765.5 713.5c-23.2 0-50.2-5.5-81.5-16.6-29-10.2-49.8-20.6-63.7-31.5-14-11.1-20.9-23.1-20.5-35.7 0.5-17.8 15.6-34.3 44.9-48.9 15.7-7.9 31.2-13 37.3-14.9 9.7-9.1 53.2-49.1 110.8-86.6 37.8-24.7 73.8-43 107-54.5 42.4-14.7 80.3-18.3 112.9-10.6 5 1.2 8.5 5.6 8.5 10.7v47.2c0 5.4-3.9 10-9.2 10.9-0.3 0-29 4.9-59.5 17.2-26.8 10.8-60.6 29.5-69.4 57.8-3 9.4-5.3 20.8-7.8 32.9-8.2 39.2-18.3 88-58.3 110.5-14.7 8.1-31.7 12.1-51.5 12.1z m-74.8-127.2c-27.5 7.9-68.4 27.4-68.9 44.1-0.2 6.6 6.5 13.3 12.2 17.8 11.8 9.3 31.1 18.8 57.4 28 51.1 18.1 89.7 20.1 114.7 6 31.3-17.6 40-59.2 47.6-95.8 2.6-12.6 5.1-24.5 8.4-34.9 18.2-58.4 107.7-82.1 137.1-88.3V434c-125.9-20.3-301.9 147.9-303.8 149.6-1.4 1.3-3 2.2-4.7 2.7z m-3.1-10.6z" fill="#C13105" /><path d="M457.4 204.3c-276.8 0-288.2 462.2-339.2 643.5-10.1 36 17 71.8 54.5 71.8h569.4c37.4 0 64.6-35.7 54.5-71.8-51-181.4-96-643.5-339.2-643.5z" fill="#F75708" /><path d="M742.1 930.6H172.7c-21.4 0-41-9.8-53.9-26.8-12.9-17-16.9-38.5-11.2-59 10.3-36.7 18.9-84.5 28.8-139.7C155 601.5 178.1 472.6 224 372c25.5-55.9 55.1-97.6 90.4-127.3 40.6-34.2 88.7-51.5 143-51.5 49.5 0 94.4 18.3 133.5 54.5 33.6 31.1 62.9 74.6 89.4 133 47.6 104.8 75.9 236.4 98.5 342.1 10.3 47.9 19.1 89.2 28.3 121.9 5.8 20.5 1.7 42-11.2 59-12.8 17.1-32.4 26.9-53.8 26.9zM457.4 215.3c-92.7 0-162.5 54.3-213.4 165.9-44.7 98.1-67.6 225.5-85.9 327.8-10 55.8-18.7 104.1-29.3 141.8-3.9 13.8-1.1 28.3 7.5 39.7 8.7 11.5 21.9 18.1 36.3 18.1H742c14.4 0 27.6-6.6 36.3-18.1 8.7-11.4 11.4-25.9 7.5-39.7-9.4-33.4-18.3-75-28.7-123.2-22.5-104.7-50.4-235-97.1-337.7-53.1-117.5-119.5-174.6-202.6-174.6z" fill="#C13105" /><path d="M457.4 215.3c-35.4 0-64.3-28.8-64.3-64.3s28.8-64.3 64.3-64.3 64.3 28.8 64.3 64.3-28.8 64.3-64.3 64.3z m0-106.6c-23.3 0-42.3 19-42.3 42.3s19 42.3 42.3 42.3 42.3-19 42.3-42.3-19-42.3-42.3-42.3zM700.6 383.1H203.2c-6.1 0-11-4.9-11-11s4.9-11 11-11h497.4c6.1 0 11 4.9 11 11s-5 11-11 11z" fill="#C13105" /><path d="M660.2 827.7c-6.1 0-11-4.9-11-11s4.9-11 11-11c9.3 0 17.8-4.2 23.4-11.6 5.6-7.4 7.3-16.7 4.8-25.5-6.7-23.9-13.1-53.6-20.5-88-7.5-35-16-74.8-26.3-114-1.5-5.9 2-11.9 7.9-13.4s11.9 2 13.4 7.9c10.4 39.7 19 79.7 26.5 115 7.3 34.1 13.6 63.5 20.1 86.7 4.4 15.6 1.3 31.9-8.5 44.8-9.7 12.7-24.6 20.1-40.8 20.1zM215.8 776.6c-1 0-2-0.1-3-0.4-5.8-1.6-9.3-7.7-7.6-13.6 7.3-26 13.4-59.9 20.4-99.2 2.9-16.1 5.9-32.8 9.1-49.9 1.1-6 6.9-9.9 12.9-8.7 6 1.1 9.9 6.9 8.7 12.9-3.2 17-6.2 33.6-9.1 49.6-7.1 39.9-13.3 74.3-20.9 101.3-1.3 4.8-5.7 8-10.5 8z" fill="#FFD400" /></svg>