<?xml version="1.0" encoding="utf-8"?>
<!-- Uploaded to: SVG Repo, www.svgrepo.com, Generator: SVG Repo Mixer Tools -->
<svg width="800px" height="800px" viewBox="0 0 1024 1024" class="icon"  version="1.1" xmlns="http://www.w3.org/2000/svg"><path d="M260.36 139.68s16-49.62 49.62-49.62 89.2 27.21 88.84 68C398 248.53 308.57 263.63 310 328.57c0.8 36.82 61.57 59.26 64.83 9.6 3.2-48.82-10.61-62.25 21.61-99.24 45.62-46.42 133.72-63.55 223.3-19.21 37.62 20 59.23 60.83 100 85.64s56.83 10.4 65.63 24S775 347.78 751 351s-20.81 3.2-56.83 12.81c-34.76 9.27-31.21 36.82-149.67 34.42 0 0-4 34.42-4 54.42s7.53 135.52 16 173.68c3.2 14.41-5.6 22.41-5.6 22.41 1.6 34.42-43.42 247.56-43.42 247.56s18.52 20.5 19.15 28.62c0.8 0.3 3.05 3.47 3.5 9-1.65-2.4-3.3-5-6.15-6.9-0.93-0.63-13.18-4.67-26.41-5.4-7.23-0.4-20.93-0.62-30.61 1.8-3.9 1.2-5.7 1.5-7.5 4.8-0.9-3.45 1.35-4.35 1.5-6.6-2.4-7.05-6.6-13.81-17.56-16.51-4.65-0.45-11.7 2.9-10.8 1.65 9.75-13.51 63.08-14.76 63.08-14.76s38.42-200.09 37.62-240.91c0 0-10.4-21.61-3.2-36 0 0-29.61-198.49-24-220.9 0 0-28-24.81-61.63-24S406 411 344.4 410.2s-81.94-51.06-78.4-84.83c6.4-61.63 108.47-107.29 110.45-156.87 0.8-20-13.61-26.41-27.21-26.41s-54.42 27.21-54.42 27.21z" fill="#F5C2BE" /><path d="M260.36 139.68s-24.81 15.41-23.91 37.92 30 64.53 40.52 58.53-5.5-46.62 17.81-66.83z" fill="#F48D83" /><path d="M260.08 158c-2.53-13.07-19.3 38.39-13.81 48.44 9.69 17.75 24 33.5 30.7 29.67 5.81-3.32 3.51-17.23 4.24-32.41 0.58-12.26-12.72-2.3-21.13-45.7z" fill="#121639" /><path d="M567.7 313.76c41.62-1.6 59.63-26 72-25.61s13.21 20.81 10.8 26-24.41 54.82-93.64 46-83.24-57.23-75.63-70c5.59-9.36 44.85 25.21 86.47 23.61z" fill="#EEA79F" /><path d="M266.16 144.74s23.86-35.57 36.47-35.87 17.11 8 16.66 16.66S289.72 165 289.72 165z" fill="#FEFAE4" /><path d="M291.9 135.51m-5.93 0a5.93 5.93 0 1 0 11.86 0 5.93 5.93 0 1 0-11.86 0Z" fill="#121639" /></svg>