<?xml version="1.0" encoding="iso-8859-1"?>

<!DOCTYPE svg PUBLIC "-//W3C//DTD SVG 1.1//EN" "http://www.w3.org/Graphics/SVG/1.1/DTD/svg11.dtd">
<!-- Uploaded to: SVG Repo, www.svgrepo.com, Generator: SVG Repo Mixer Tools -->
<svg height="800px" width="800px" version="1.1" id="_x36_" xmlns="http://www.w3.org/2000/svg" xmlns:xlink="http://www.w3.org/1999/xlink" 
	 viewBox="0 0 512 512"  xml:space="preserve">
<g>
	<g>
		<path style="fill:#F6BF5F;" d="M511.992,256c0,141.377-114.608,256-255.993,256C114.612,512,0,397.377,0,256
			C0,114.609,114.612,0,255.999,0C397.384,0,511.992,114.609,511.992,256z"/>
		<g>
			<g>
				<path style="fill:#E9913A;" d="M451.823,319.517c-20.442,62.928-70.588,112.753-133.704,132.757
					c-6.95,2.207-10.797,9.63-8.591,16.572c2.2,6.943,9.623,10.79,16.566,8.583c71.297-22.633,127.699-78.677,150.827-149.76
					c2.257-6.928-1.541-14.373-8.469-16.63C461.523,308.791,454.079,312.588,451.823,319.517L451.823,319.517z"/>
			</g>
		</g>
		<g>
			<path style="fill:#ECC688;" d="M255.999,0C114.612,0,0,114.609,0,256c0,82.805,39.349,156.38,100.329,203.174l358.844-358.844
				C412.38,39.349,338.804,0,255.999,0z"/>
			<g>
				<path style="fill:#FFFFFF;" d="M199.047,30.816C117.969,51.35,53.872,114.451,31.897,194.949
					c-1.92,7.029,2.224,14.294,9.257,16.206c7.029,1.921,14.287-2.228,16.207-9.257C76.767,130.644,133.76,74.535,205.516,56.402
					c7.072-1.792,11.349-8.971,9.558-16.028C213.29,33.302,206.111,29.024,199.047,30.816z"/>
			</g>
		</g>
	</g>
	<polygon style="fill:#EA514F;" points="255.999,177.688 278.34,233.517 338.331,237.514 292.139,276.012 306.885,334.297 
		255.999,302.271 205.115,334.297 219.853,276.012 173.661,237.514 233.66,233.517 	"/>
</g>
</svg>